<svg width="78" height="49" viewBox="0 0 78 49" fill="none" xmlns="http://www.w3.org/2000/svg">
<path d="M6.48493 20.0285C10.1637 26.5063 14.0824 32.8242 18.161 38.9821C18.4809 39.5419 19.3606 38.9821 19.0407 38.5023C14.9621 32.3444 11.0434 26.0265 7.36464 19.5487C7.04475 18.9089 6.16504 19.4687 6.48493 20.0285Z" fill="black"/>
<path d="M27.9981 48.7391C28.3979 49.2189 29.2776 48.7391 28.8778 48.2592C27.3583 46.2599 25.8388 44.2606 24.2393 42.2613C23.8395 41.7814 22.9598 42.2613 23.3596 42.7411C24.8791 44.7404 26.4786 46.7397 27.9981 48.7391Z" fill="black"/>
<path d="M28.3981 54.5779C28.7979 55.0577 29.6776 54.5779 29.2778 54.098C26.9586 50.8991 24.7193 47.6202 22.64 44.3413C22.3201 43.7815 21.4404 44.2614 21.7603 44.8212C23.8396 48.1001 26.0789 51.3789 28.3981 54.5779Z" fill="black"/>
<path d="M63.3461 47.5406C62.2265 49.3799 59.7474 50.0197 57.828 48.9001C57.2682 48.5802 56.7884 49.4599 57.3482 49.7798C59.6674 51.1393 62.7863 50.4196 64.2258 48.0204C64.4658 47.4606 63.666 46.9807 63.3461 47.5406Z" fill="black"/>
<path d="M97.8141 35.4642C97.8141 35.1443 97.6542 34.9044 97.3343 34.6644C96.6945 34.2646 96.1347 33.8647 95.4949 33.3849C95.095 33.065 94.2953 32.7451 93.8954 32.2652C93.8954 31.7854 93.6555 31.3855 93.1757 31.2256C93.1757 31.3056 93.1757 31.3056 93.1757 31.3855C93.1757 31.2256 93.1757 31.1456 93.1757 30.9857C93.0957 30.7458 93.0957 30.5058 92.9358 30.3459C92.7758 30.106 92.136 29.7061 91.8961 29.3862C91.9761 29.0663 91.8961 28.7464 91.7362 28.5065C91.7362 28.2666 91.7362 28.0267 91.6562 27.8667C90.5366 25.7075 87.4176 23.7081 85.5783 22.0287C83.1791 19.7895 80.6999 17.4703 78.3007 15.231C73.3424 10.5126 68.4641 5.71423 63.7456 0.835886C63.5857 0.116129 62.706 -0.363713 62.1462 0.356043C59.747 3.31504 53.749 2.19543 50.7101 1.71559C48.2309 1.31573 45.7517 0.595962 43.2726 1.15577C40.2336 1.79556 37.9944 3.79489 36.7148 6.51397C34.6355 4.11478 31.4366 4.43465 28.4776 5.39433C21.8398 7.63357 15.362 10.1128 8.80423 12.5119C8.24442 12.352 7.4447 12.6719 7.4447 13.3916C7.36473 14.1114 7.28476 14.9911 7.04484 15.7109C6.64497 16.6705 6.08517 16.9104 5.12549 17.2303C3.68598 17.7102 2.24645 18.11 0.806934 18.5099C0.0871776 18.6699 0.00721444 19.3096 0.16716 19.8694C0.00721444 20.1094 -0.0727634 20.5092 0.0871825 20.9091C8.3244 36.2639 17.4413 51.1389 27.4379 65.454C27.6779 65.8539 28.0777 65.9339 28.4776 65.8539C28.6375 65.9339 28.8775 65.9339 29.1174 65.8539C38.4742 62.0152 47.5911 57.6966 56.4681 52.9782C60.6267 54.5777 65.1852 52.9782 67.3444 49.1395C72.7826 46.9803 78.2207 44.821 83.6589 42.6617C88.2174 40.8223 93.1757 39.3829 97.4942 36.9037C97.9741 36.4239 98.054 35.864 97.8141 35.4642ZM53.9889 4.0348C56.3082 4.19475 59.5071 4.19473 61.8263 2.99514C61.9063 2.99514 61.9862 2.91519 62.1462 2.91519C62.1462 2.99516 62.2262 3.07512 62.3061 3.07512C71.0232 11.7922 80.0601 20.1893 89.417 28.1866C88.9371 28.6665 88.3773 29.0663 87.6576 29.3862C87.5776 29.3862 87.5776 29.4662 87.4976 29.5462C84.3787 31.1456 81.1797 32.3452 77.7409 32.985C74.382 33.6248 70.8632 33.4648 67.5844 34.5845C64.1455 35.784 61.4264 38.2632 61.1065 41.862C61.0266 40.9823 60.6267 40.4225 60.0669 40.0226C52.9493 29.6261 45.5118 19.3896 37.8344 9.39298C37.9144 9.313 37.9944 9.23304 37.9944 9.15307C39.8337 3.87485 43.7524 2.91518 48.1509 3.1551C50.0703 3.47499 52.0696 3.87486 53.9889 4.0348ZM66.8646 46.7403C66.6247 46.7403 66.3848 46.8203 66.1448 46.9803C65.9849 47.0602 65.745 47.1402 65.585 47.2202C65.4251 47.1402 65.2651 47.2202 65.1852 47.3002C65.2651 47.1402 65.3451 46.9003 65.1052 46.7403C64.7853 46.4205 64.4654 46.0206 64.1455 45.7007C64.0655 45.6207 64.0655 45.6207 63.9856 45.6207C64.0655 45.6207 64.1455 45.6207 64.2255 45.5408C73.4224 41.2222 82.9392 37.7834 92.7758 35.3842C83.6589 38.903 74.462 42.4218 65.3451 45.8606C64.7853 46.1006 65.0252 47.0602 65.585 46.8203C75.4217 43.1416 85.2584 39.3828 95.0151 35.6241C95.095 35.7041 95.175 35.784 95.255 35.784C94.1354 36.3439 93.0157 36.9037 91.8162 37.3835C83.499 40.4225 75.1818 43.5414 66.8646 46.7403ZM61.1065 50.659C59.827 50.9789 58.7074 50.9789 57.5078 50.739C57.5078 50.659 57.5078 50.579 57.4278 50.579C57.3478 50.4991 57.3478 50.4191 57.2678 50.3391C57.5078 50.0192 57.1879 49.5394 56.708 49.6194C56.4681 49.2995 56.3082 49.0596 56.0682 48.7397L55.9883 48.6597C55.9883 48.5797 55.9883 48.5797 55.9083 48.4998C57.5877 46.9003 59.3471 45.3008 61.0266 43.7014C61.6664 44.3412 62.3061 44.9809 62.9459 45.6207C63.1059 45.7807 63.2658 45.7807 63.3458 45.7007C63.2658 45.8607 63.1858 46.1006 63.4258 46.3405C63.7457 46.6604 64.0655 47.0602 64.3854 47.3801C64.5454 47.5401 64.7853 47.5401 64.9452 47.4601C64.9452 47.4601 64.9452 47.5401 64.9452 47.6201C64.8653 47.78 64.8653 47.94 64.8653 48.0999C64.6253 49.6194 62.4661 50.3391 61.1065 50.659ZM12.8029 27.147C13.1228 27.7068 14.0025 27.2269 13.6826 26.6671C12.0031 23.7081 10.2438 20.6692 8.56432 17.7102L8.6443 17.6302C8.96419 17.1504 9.04415 16.4306 9.28407 15.8708C15.9218 27.7868 23.3593 39.3029 31.5965 50.1792C31.5165 50.2591 31.5166 50.3391 31.5166 50.4991C30.8768 51.3788 31.4366 52.5784 30.3969 53.2182C30.077 53.3781 30.077 53.9379 30.3969 54.0979C31.1167 54.4178 30.4769 54.7376 30.237 55.2175C29.9171 55.8573 29.9171 56.9769 29.8371 57.7766C21.0401 45.8606 13.1228 33.4648 6.08515 20.4293C6.08515 20.2693 6.16513 20.0294 6.16513 19.8694C6.40505 19.1497 6.80491 18.9897 7.36473 18.6698C7.52467 18.5899 7.68462 18.5099 7.84457 18.35C9.44403 21.309 11.1234 24.188 12.8029 27.147ZM31.0367 56.0972C31.1167 55.7773 31.3566 55.6173 31.5166 55.3774C39.6738 54.5777 45.9117 48.6597 53.749 46.8203C54.3888 46.6604 54.1489 45.7007 53.5091 45.8606C45.9117 47.62 39.7538 53.2981 31.9964 54.2578C31.9164 54.0179 31.7565 53.778 31.5166 53.538C31.6765 53.3781 31.8364 53.2181 31.9964 52.9782C34.5555 53.1382 37.0347 51.6187 39.3539 50.579C43.1126 48.8196 46.7914 46.9003 50.3902 44.821C50.95 44.5011 50.4701 43.6214 49.9103 43.9413C47.2712 45.4608 44.5521 46.9803 41.8331 48.3398C39.114 49.6993 35.2753 52.2585 32.1563 52.0186C32.1563 51.5387 32.1563 51.0589 32.5562 50.819L32.6362 50.739C36.6348 49.8593 39.9937 47.9399 43.3526 45.7807C45.112 44.661 46.7914 43.5414 48.6308 42.5817C49.8304 41.942 56.5481 38.983 59.0273 40.5025C59.0273 40.5025 59.0273 40.5024 59.0273 40.5824C59.1072 40.6624 59.1872 40.7424 59.3471 40.8224C59.827 41.2222 60.0669 41.862 59.9869 42.8217C59.9869 42.9816 59.9869 43.0616 60.0669 43.1416C59.667 43.5414 59.2672 43.8613 58.8673 44.2612C58.8673 44.1012 58.8673 44.0213 58.7074 43.8613C57.6677 42.8217 56.2282 42.3418 54.7887 42.5817C54.1489 42.6617 54.3888 43.6214 55.0286 43.5414C56.1482 43.3815 57.1879 43.7813 57.9876 44.5811C58.0676 44.661 58.2275 44.741 58.3075 44.741C57.1079 45.8606 55.8283 47.0602 54.6287 48.1799C54.5488 48.2598 54.4688 48.4198 54.4688 48.4998C46.4715 51.5387 38.4742 54.7376 30.6369 58.1765C30.7968 57.5367 30.7968 56.737 31.0367 56.0972ZM88.1374 30.3459C88.2174 30.3459 88.2973 30.2659 88.2973 30.1859C88.6972 30.026 89.0171 29.7861 89.337 29.5462C89.0971 29.946 89.0171 30.4259 89.337 30.9057C89.5769 31.1456 89.8168 31.2256 90.1367 31.3855C90.8565 31.7054 90.3766 31.3855 90.3766 31.7854C90.2967 31.6255 90.1367 31.5455 89.8968 31.6255C87.5776 32.5851 85.1784 33.3849 82.6992 33.9447C82.0594 34.1046 82.2994 35.0643 82.9392 34.9044C85.4183 34.3446 87.8175 33.5448 90.1367 32.5851C90.2967 32.5052 90.3766 32.4252 90.4566 32.2652C90.5366 32.5052 90.6965 32.6651 90.9364 32.7451C91.0964 32.8251 91.3363 32.8251 91.4963 32.905C91.8961 33.065 91.6562 32.7451 91.8162 33.3049C91.8961 33.5448 91.8162 33.7048 91.9761 33.9447C92.0561 34.0247 92.296 34.1846 92.5359 34.3445C89.417 35.1443 86.378 35.944 83.339 36.9037C83.419 36.5838 83.1791 36.1039 82.7792 36.2639C78.8605 37.3835 74.7019 37.3835 70.8632 38.823C67.9042 39.8627 65.3451 41.5421 62.9459 43.6214C62.786 43.7014 62.786 43.8613 62.786 44.0213C62.706 43.9413 62.626 43.8613 62.5461 43.7813C62.626 43.7014 62.626 43.6214 62.706 43.5414C63.5057 40.9823 66.1448 40.1026 68.4641 39.3828C69.1038 39.2229 68.784 38.2632 68.2241 38.4232C65.825 39.2229 63.2658 40.1826 62.0662 42.5018C62.4661 35.1443 71.3431 35.2243 76.6213 34.4245C80.6199 33.6248 84.4586 32.2652 88.1374 30.3459ZM93.9754 34.7444C93.7355 34.8244 93.4956 34.9043 93.2557 34.9843C93.3356 34.9043 93.3356 34.8244 93.4156 34.7444C93.4956 34.6644 93.5756 34.5845 93.5756 34.4245C93.5756 34.4245 93.6555 34.4245 93.6555 34.5045C93.8155 34.5845 93.8954 34.6644 93.9754 34.7444ZM63.7456 44.5011C63.6657 44.5811 63.5857 44.5811 63.5857 44.661C63.4258 44.5811 63.3458 44.4211 63.1858 44.3412C63.3458 44.3412 63.4258 44.3412 63.5857 44.1812C66.4647 41.702 69.8236 39.8627 73.5023 38.983C75.8216 38.4232 78.1408 38.1832 80.54 37.7834C74.7819 39.7027 69.1838 41.942 63.7456 44.5011ZM35.4352 7.95347C35.4352 8.03345 35.4352 8.19339 35.5152 8.27336C43.4325 18.4299 50.95 28.8264 58.2275 39.3828C56.2282 38.983 53.5091 39.5428 51.9896 40.0226C44.952 42.3418 39.8337 48.0999 32.5562 49.7793C24.159 38.5831 16.5616 26.9071 9.76391 14.6712C13.6826 13.1517 17.5213 11.6322 21.44 10.1128C24.159 8.99313 30.3969 5.71424 33.9957 6.83386C34.5555 7.07378 35.0354 7.39366 35.4352 7.95347ZM5.12549 19.7895C4.88557 19.8694 4.72561 20.1893 4.88556 20.5092C12.0831 33.8647 20.2404 46.6604 29.2773 58.8962H29.1973C28.6375 59.1362 29.1174 60.0158 29.6772 59.7759C38.0743 56.0972 46.6314 52.6583 55.2685 49.3794C55.4285 49.5394 55.5884 49.7793 55.6684 49.9393C46.8714 53.618 38.1543 57.3767 29.3573 61.0555C20.0005 48.3398 11.6033 34.9044 4.24579 20.9091C3.92589 20.3493 3.04619 20.8291 3.36608 21.3889C10.8036 35.3842 19.1207 48.7397 28.4776 61.5353C28.3976 61.8552 28.7975 62.3351 29.1973 62.0952C36.3149 59.0562 43.4325 56.0972 50.5501 53.0582C43.2726 56.1772 36.075 59.4561 28.9574 62.8149C28.8774 62.8149 28.7975 62.7349 28.6375 62.8149C28.4776 62.8149 28.3976 62.8149 28.2377 62.8149C19.2007 48.8197 10.2437 34.8244 2.40639 20.1094C3.20612 19.8694 4.00585 19.5496 4.80558 19.3096C4.88555 19.3096 4.96554 19.2297 5.04551 19.2297C5.12549 19.4696 5.12549 19.6295 5.12549 19.7895Z" fill="black"/>
</svg>
