<svg width="105" height="79" viewBox="0 0 105 79" fill="none" xmlns="http://www.w3.org/2000/svg">
<path d="M104.775 39.718C104.675 39.518 104.675 39.3181 104.575 39.1181C98.775 24.6181 91.775 8.81805 81.275 -2.88195C81.175 -2.98195 81.175 -2.98195 81.075 -2.98195C80.875 -3.68195 80.175 -4.18197 79.375 -3.78197C78.275 -3.08197 77.375 -5.48196 76.875 -6.18196C76.475 -6.68196 76.175 -7.18195 75.475 -7.38195C74.775 -7.58195 74.575 -7.18196 73.975 -7.08196C73.275 -6.88196 73.275 -7.08195 72.575 -7.48195C72.475 -7.58195 72.375 -7.58196 72.275 -7.58196C71.975 -7.98196 71.375 -8.18197 70.875 -7.78197C70.875 -7.78197 70.875 -7.78197 70.775 -7.78197C65.775 -4.38197 60.575 -6.18196 54.975 -6.18196C51.775 -6.18196 48.675 -5.68196 45.675 -4.68196C39.975 -2.68196 35.375 1.01804 31.975 5.91804C16.275 -0.581958 2.37499 14.8181 -12.525 17.6181C-12.925 17.7181 -13.125 17.918 -13.225 18.218C-13.625 18.318 -14.025 18.518 -14.325 18.918C-14.725 19.518 -14.625 20.218 -14.425 20.918C-15.125 21.218 -15.825 21.718 -15.925 22.718C-16.025 23.418 -15.725 23.718 -15.425 24.318C-15.125 25.018 -15.625 25.618 -15.925 26.318C-16.025 26.618 -16.025 26.9181 -15.925 27.1181C-15.925 27.2181 -15.925 27.218 -15.925 27.318C-10.825 37.718 -7.72499 48.718 -5.22499 59.918C-4.12499 64.718 -3.92501 70.818 -2.02501 75.318C-1.32501 76.818 -0.824987 77.618 0.275013 78.0181C0.475014 78.3181 0.775007 78.6181 1.17501 78.6181C9.27501 79.4181 17.575 73.818 24.475 70.218C33.175 65.718 41.575 60.718 49.875 55.518C51.075 56.418 52.875 56.718 54.275 56.5181C55.075 56.4181 55.875 56.018 56.475 55.418C56.975 54.918 57.075 54.118 57.475 53.518C57.575 53.518 57.775 53.418 57.875 53.418C66.775 48.218 76.675 46.7181 86.875 46.6181C93.375 46.5181 99.975 47.0181 104.075 41.1181C104.175 41.0181 104.175 40.918 104.275 40.818C104.775 40.618 104.975 40.218 104.775 39.718ZM75.375 44.418C68.875 45.318 61.075 47.1181 55.975 51.6181C55.575 51.6181 55.275 51.818 55.175 52.318C55.175 52.318 55.175 52.318 55.175 52.418C55.075 52.518 55.075 52.718 55.075 52.818C54.875 53.518 54.175 54.118 53.375 54.018C52.375 54.018 51.575 53.2181 50.875 52.6181C50.875 52.5181 50.875 52.518 50.875 52.418C50.875 52.218 50.875 52.018 50.875 51.818C51.375 51.618 51.475 50.9181 51.075 50.6181C51.175 50.5181 51.275 50.518 51.475 50.418C51.775 50.318 51.975 50.218 52.275 50.018C52.475 50.118 52.675 50.218 52.875 50.218C53.775 50.418 54.775 50.518 55.775 50.718C56.675 50.818 57.075 49.518 56.175 49.318C55.875 49.318 55.575 49.218 55.275 49.218C59.375 41.818 69.175 43.018 76.475 42.518C81.975 42.118 86.775 40.218 91.175 37.018C91.975 36.518 91.175 35.218 90.475 35.718C86.275 38.718 81.675 40.618 76.475 41.018C72.975 41.218 69.475 40.918 65.975 41.518C60.875 42.318 56.075 44.218 53.775 49.018C53.375 49.018 53.075 48.918 53.075 48.818C53.075 48.618 52.975 48.518 52.775 48.418C52.575 48.018 52.075 47.718 51.575 47.818C55.475 39.718 70.475 39.818 77.975 38.818C82.475 38.218 89.275 38.118 92.175 34.218C92.275 34.018 92.275 33.918 92.275 33.718C92.675 33.618 92.975 33.418 93.375 33.318C93.875 33.318 94.175 32.918 94.075 32.418C90.175 18.918 82.475 7.21805 73.575 -3.48195C73.775 -3.58195 73.975 -3.68195 74.275 -3.88195C83.275 8.61805 92.075 21.318 96.775 36.218C92.675 39.518 87.875 41.418 82.675 41.818C81.775 41.918 81.775 43.318 82.675 43.318C88.475 42.918 93.775 40.718 98.275 36.918C98.675 36.618 98.575 36.218 98.275 35.918C94.075 22.718 86.675 11.118 78.775 -0.0819578C79.075 -0.181958 79.275 -0.281946 79.575 -0.381946C89.875 10.0181 96.575 25.4181 101.775 39.1181C95.375 46.0181 83.675 43.218 75.375 44.418ZM33.675 9.41804C33.875 9.41804 34.075 9.31805 34.175 9.01805C38.475 -0.0819511 46.675 -3.28195 56.275 -2.98195C61.175 -2.88195 66.575 -1.88195 70.875 -4.38195C76.375 2.01805 81.475 8.71805 85.575 16.018C87.775 19.918 89.675 23.9181 91.075 28.1181C92.075 30.9181 92.675 31.218 90.775 32.818C90.475 33.018 90.475 33.4181 90.675 33.6181C87.975 36.8181 79.475 37.1181 75.975 37.6181C72.375 38.1181 68.675 38.418 65.075 39.218C59.875 40.218 53.175 41.818 50.475 46.918C50.375 46.818 50.275 46.818 50.175 46.818C42.375 46.118 34.575 50.418 28.475 54.918C20.175 60.918 12.975 65.4181 2.37499 65.5181C-0.125011 50.4181 -4.425 35.7181 -10.425 21.6181C-10.225 21.4181 -10.225 21.2181 -10.225 21.018C4.87501 18.318 16.975 2.31806 32.775 10.1181C33.075 10.0181 33.475 9.71804 33.675 9.41804ZM-12.025 23.318C-11.825 23.118 -11.625 22.918 -11.525 22.718C-9.02501 28.618 -6.82501 34.618 -5.02501 40.718C-7.32501 34.918 -9.62501 29.118 -12.025 23.318ZM-12.625 26.718C-12.525 26.618 -12.425 26.518 -12.325 26.418C-10.325 31.418 -8.22499 36.518 -6.22499 41.518C-5.92499 42.218 -4.82499 42.118 -4.72499 41.418C-2.32499 49.418 -0.425005 57.618 0.974995 65.918C1.075 66.218 1.27499 66.418 1.47499 66.418C1.575 66.518 1.77499 66.6181 1.97499 66.6181C9.575 66.6181 16.675 64.618 22.975 60.418C31.175 54.918 39.375 47.118 50.175 48.018C50.275 48.018 50.275 48.018 50.375 48.018C50.475 48.118 50.675 48.218 50.775 48.318C50.675 48.618 50.875 48.818 51.075 49.018C50.975 49.018 50.875 49.1181 50.775 49.1181C50.475 49.2181 50.175 49.418 49.875 49.718C49.775 49.918 49.675 50.118 49.575 50.318C42.375 50.318 36.475 53.8181 30.675 58.0181C27.375 60.4181 24.175 63.018 20.575 64.918C15.575 67.518 10.175 68.318 4.67501 69.218C3.77501 69.418 4.175 70.7181 5.075 70.6181C13.275 69.2181 19.975 67.5181 26.875 62.6181C33.875 57.6181 40.575 51.818 49.575 51.718C49.575 51.918 49.575 52.118 49.575 52.318C49.575 52.518 49.675 52.618 49.675 52.718C49.575 52.818 49.575 53.0181 49.575 53.1181C49.375 53.0181 49.175 53.118 48.975 53.218C34.775 61.518 20.075 72.318 3.67501 75.818C3.27501 75.918 3.17501 76.218 3.17501 76.5181C3.07501 76.5181 2.87501 76.5181 2.77501 76.5181C2.57501 76.4181 2.47501 76.318 2.17501 76.318C2.07501 76.318 1.87501 76.2181 1.77501 76.1181C1.37501 75.7181 1.07501 75.218 1.17501 74.5181C1.17501 74.218 1.075 74.018 0.974995 73.818C-2.02501 57.718 -6.62501 42.018 -12.625 26.718Z" fill="black"/>
<path d="M69.275 43.8173C65.975 44.0173 62.9749 44.8173 60.0749 46.3173C59.2749 46.7173 59.975 48.0173 60.775 47.6173C63.475 46.2173 66.275 45.4173 69.275 45.3173C70.175 45.2173 70.175 43.7173 69.275 43.8173Z" fill="black"/>
<path d="M98.8749 37.3186C97.6749 38.8186 96.0749 39.7186 94.2749 40.2186C93.3749 40.4186 93.7749 41.8186 94.6749 41.6186C96.7749 41.1186 98.5749 40.0186 99.8749 38.4186C100.475 37.6186 99.4749 36.6186 98.8749 37.3186Z" fill="black"/>
<path d="M21.3754 40.319C21.1754 40.119 20.8754 40.019 20.6754 40.119C20.3754 39.919 20.0754 39.819 19.7754 40.119C15.9754 44.119 10.9754 45.219 6.27543 47.819C5.97543 48.019 5.87541 48.219 5.97541 48.519C5.87541 48.619 5.7754 48.819 5.8754 49.019C6.3754 51.919 7.47541 54.719 8.97541 57.219C9.07541 57.319 9.07542 57.419 9.17542 57.419C8.67542 57.819 9.0754 58.819 9.8754 58.719C15.8754 57.819 22.1754 56.519 25.5754 50.919C26.0754 50.119 24.7754 49.419 24.2754 50.219C21.2754 55.219 15.5754 56.419 10.1754 57.219C10.2754 57.019 10.3754 56.719 10.1754 56.519C8.67542 54.119 7.77543 51.619 7.27543 48.919C11.8754 46.419 16.6754 45.219 20.4754 41.419C22.5754 43.819 22.5754 47.419 25.1754 49.619C25.8754 50.219 26.8754 49.219 26.1754 48.619C23.5754 46.519 23.5754 42.719 21.3754 40.319Z" fill="black"/>
<path d="M10.9752 17.1173C10.3752 17.7173 11.2752 18.7173 11.8752 18.2173C12.8752 19.6173 13.7752 21.0173 14.4752 22.5173C15.1752 24.0173 15.4752 25.5173 16.6752 26.7173C16.7752 26.8173 16.7752 26.8173 16.8752 26.8173C16.4752 27.4173 17.0752 28.4173 17.7752 27.9173C22.9752 24.0173 29.1752 22.3173 35.6752 23.1173C36.5752 23.2173 36.5752 22.0173 35.8752 21.7173C35.8752 21.5173 35.7752 21.4173 35.6752 21.3173C34.1752 20.1173 33.9752 17.5173 32.9752 15.9173C32.4752 15.1173 31.7752 13.6173 30.7752 13.2173C24.5752 10.2173 15.4752 12.1173 10.9752 17.1173ZM32.7752 19.2173C33.0752 20.0173 33.3752 20.8173 33.7752 21.5173C28.0752 21.2173 22.5752 22.8173 17.7752 26.1173C17.7752 26.0173 17.6752 25.8173 17.5752 25.7173C16.3752 24.5173 16.0752 22.7173 15.3752 21.3173C14.6752 19.9173 13.8752 18.5173 12.8752 17.3173C16.9752 13.6173 24.1752 12.1173 29.2752 14.2173C29.3752 14.5173 29.6752 14.7173 30.0752 14.6173C30.7752 14.2173 32.5752 18.7173 32.7752 19.2173Z" fill="black"/>
<path d="M66.475 26.718C66.075 25.218 65.375 24.018 64.075 23.118C63.575 22.718 63.075 23.218 63.075 23.718C60.475 24.118 57.875 23.518 55.275 24.218C52.975 24.918 50.975 26.218 49.275 28.018C49.075 28.218 49.075 28.418 49.075 28.618C48.975 28.818 48.875 28.918 48.975 29.218C49.475 32.218 50.775 35.018 52.575 37.418C53.175 38.118 54.375 37.418 53.875 36.718C52.175 34.418 50.975 31.818 50.475 29.018C52.475 26.918 54.875 25.618 57.775 25.318C59.875 25.118 61.975 25.518 63.975 25.018C65.075 26.218 65.175 28.118 65.575 29.618C65.975 31.218 66.475 32.718 67.075 34.218C65.075 34.918 62.375 34.518 60.275 34.918C58.075 35.418 56.075 36.218 54.075 37.218C53.275 37.618 53.975 38.918 54.775 38.518C57.375 37.118 60.175 36.218 63.075 35.918C64.675 35.818 66.175 35.918 67.675 35.418C68.175 35.618 68.975 35.018 68.675 34.418C67.775 31.818 67.175 29.218 66.475 26.718Z" fill="black"/>
<path d="M55.975 9.61861C57.175 11.4186 57.7751 13.2186 58.7751 15.1186C59.0751 15.7186 59.875 15.5186 60.075 14.9186C60.175 15.0186 60.275 15.0186 60.475 15.0186C64.575 14.7186 75.175 15.1186 75.575 9.11861C75.975 8.91861 76.275 8.3186 75.875 7.9186C74.375 6.0186 74.1751 3.5186 72.2751 2.0186C72.4751 1.5186 72.175 0.718602 71.475 1.0186C67.775 2.6186 63.875 1.01861 59.975 1.11861C57.875 1.11861 55.275 1.1186 53.875 2.9186C53.775 3.0186 53.6751 3.2186 53.6751 3.4186C53.2751 3.5186 52.975 3.81859 53.075 4.31859C53.875 6.11859 54.775 7.91861 55.975 9.61861ZM65.075 2.9186C67.275 3.2186 69.1751 3.31861 71.1751 2.61861C71.1751 2.81861 71.275 2.9186 71.475 3.0186C72.975 4.1186 73.4751 6.2186 74.2751 7.9186C74.1751 8.0186 74.1751 8.11859 74.1751 8.31859C74.6751 13.8186 64.075 13.3186 60.575 13.6186C60.275 13.6186 60.075 13.8186 59.975 14.0186C59.175 12.5186 58.7751 10.9186 57.7751 9.4186C56.5751 7.7186 55.575 6.0186 54.875 4.0186C54.975 4.0186 55.075 3.91859 55.075 3.81859C56.875 1.41859 62.475 2.6186 65.075 2.9186Z" fill="black"/>
<path d="M42.4752 10.9179C43.0752 8.21793 45.8752 7.41793 48.1752 6.81793C49.0752 6.61793 48.6752 5.21793 47.7752 5.41793C44.9752 6.21793 41.7752 7.31794 41.0752 10.5179C40.8752 11.5179 42.2752 11.9179 42.4752 10.9179Z" fill="black"/>
<path d="M43.5749 13.6176C42.9749 14.3176 44.0749 15.4176 44.5749 14.6176C45.9749 12.8176 47.9749 11.7176 50.2749 11.5176C51.1749 11.4176 51.1749 10.0176 50.2749 10.0176C47.5749 10.3176 45.1749 11.5176 43.5749 13.6176Z" fill="black"/>
<path d="M45.2747 17.2184C44.8747 18.0184 46.1747 18.8184 46.5747 17.9184C47.4747 15.9184 49.3747 14.8184 51.5747 14.8184C52.4747 14.8184 52.4747 13.4184 51.5747 13.3184C48.8747 13.3184 46.4747 14.8184 45.2747 17.2184Z" fill="black"/>
<path d="M55.5753 19.2183C56.4753 19.0183 56.0753 17.6183 55.1753 17.8183C52.0753 18.5183 48.8753 19.5183 47.7753 22.7183C47.4753 23.6183 48.8753 24.0183 49.1753 23.1183C50.0753 20.4183 53.0753 19.8183 55.5753 19.2183Z" fill="black"/>
<path d="M68.9748 21.4177C72.2748 21.0177 75.4748 20.2177 78.5748 19.1177C79.4748 18.8177 79.0748 17.4177 78.1748 17.7177C75.1748 18.8177 72.0748 19.6177 68.9748 20.0177C68.0748 20.1177 68.0748 21.5177 68.9748 21.4177Z" fill="black"/>
<path d="M72.4747 25.618C75.8747 24.918 79.2747 23.818 82.4747 22.518C83.2747 22.118 82.9747 20.718 82.0747 21.118C78.8747 22.518 75.4747 23.518 72.0747 24.218C71.1747 24.418 71.5747 25.818 72.4747 25.618Z" fill="black"/>
<path d="M72.9747 30.4174C76.9747 29.4174 81.2747 29.4174 84.6747 26.8174C85.3747 26.2174 84.6747 25.0174 83.9747 25.5174C80.6747 28.0174 76.4747 28.0174 72.5747 29.0174C71.6747 29.2174 72.0747 30.6174 72.9747 30.4174Z" fill="black"/>
<path d="M84.0751 28.8175C82.1751 30.0175 80.1751 31.0176 77.9751 31.6176C77.0751 31.9176 77.4751 33.3175 78.3751 33.0175C80.6751 32.3175 82.7751 31.4176 84.7751 30.1176C85.5751 29.6176 84.8751 28.3175 84.0751 28.8175Z" fill="black"/>
<path d="M24.0747 34.6185C23.4747 35.3185 24.4747 36.3185 25.0747 35.6185C27.9747 32.3185 32.4747 31.0185 36.6747 32.4185C37.5747 32.7185 37.9747 31.3185 37.0747 31.0185C32.4747 29.5185 27.3747 30.9185 24.0747 34.6185Z" fill="black"/>
<path d="M34.9752 34.6176C31.7752 34.9176 28.7752 36.3175 26.4752 38.5175C25.7752 39.1175 26.7752 40.2175 27.4752 39.5175C28.9752 38.1175 30.6752 37.0175 32.6752 36.4175C33.5752 36.2175 34.3752 36.0175 35.2752 35.9175C35.8752 35.9175 37.6752 36.3175 37.9752 35.5175C37.5752 36.3175 38.8752 37.1175 39.2752 36.2175C40.1752 34.2175 36.0752 34.5176 34.9752 34.6176Z" fill="black"/>
<path d="M35.2754 37.9177C32.6754 38.5177 30.2754 39.7177 28.1754 41.4177C27.4754 42.0177 28.4754 43.0177 29.1754 42.4177C30.5754 41.2177 32.1754 40.4177 33.9754 39.8177C34.8754 39.5177 38.2754 38.3177 38.9754 39.3177C39.4754 40.1177 40.7754 39.3177 40.2754 38.6177C39.1754 37.0177 36.8754 37.6177 35.2754 37.9177Z" fill="black"/>
<path d="M36.0747 43.5172C34.0747 43.9172 32.2747 44.7172 30.6747 45.9172C29.9747 46.5172 30.6747 47.7172 31.3747 47.2172C32.8747 46.1172 34.5747 45.3172 36.4747 44.9172C37.3747 44.7172 37.0747 43.4172 36.0747 43.5172Z" fill="black"/>
<path d="M42.2754 44.4176V44.3176C42.2754 43.4176 40.7754 43.4176 40.7754 44.3176V44.4176C40.7754 45.3176 42.2754 45.3176 42.2754 44.4176Z" fill="black"/>
<path d="M-1.52512 26.9173C1.57488 26.0173 4.47487 24.8173 7.37487 23.2173C8.17487 22.8173 7.47489 21.5173 6.67489 21.9173C3.97489 23.4173 1.07489 24.5173 -1.82511 25.4173C-2.82511 25.7173 -2.42512 27.1173 -1.52512 26.9173Z" fill="black"/>
<path d="M10.0747 23.4181C6.37469 25.3181 2.5747 26.8181 -1.42531 27.9181C-2.32531 28.1181 -1.92531 29.5181 -1.02531 29.3181C3.07469 28.2181 7.07468 26.6181 10.8747 24.7181C11.6747 24.2181 10.9747 23.0181 10.0747 23.4181Z" fill="black"/>
<path d="M10.1747 27.6173C6.7747 29.4173 3.27469 30.9173 -0.425305 32.0173C-1.32531 32.3173 -0.925311 33.7173 -0.0253112 33.4173C3.77469 32.2173 7.37468 30.7173 10.8747 28.9173C11.7747 28.4173 10.9747 27.2173 10.1747 27.6173Z" fill="black"/>
<path d="M13.7746 29.8188C10.6746 32.7188 6.37457 33.5188 2.67457 35.3188C1.87457 35.7188 2.57455 36.9188 3.37455 36.6188C7.27455 34.8188 11.5746 34.0188 14.7746 30.9188C15.4746 30.2188 14.4746 29.2188 13.7746 29.8188Z" fill="black"/>
<path d="M14.9751 33.0182C11.8751 35.6182 8.37509 37.5182 4.47509 38.8182C3.57509 39.1182 3.97508 40.5182 4.87508 40.2182C8.97508 38.8182 12.6751 36.8182 15.9751 34.0182C16.6751 33.5182 15.6751 32.4182 14.9751 33.0182Z" fill="black"/>
<path d="M19.7754 32.1188V32.0187C19.7754 31.1187 18.2754 31.1187 18.2754 32.0187V32.1188C18.3754 33.0188 19.7754 33.0188 19.7754 32.1188Z" fill="black"/>
</svg>
