<svg width="72" height="74" viewBox="0 0 72 74" fill="none" xmlns="http://www.w3.org/2000/svg">
<path d="M32.1046 43.3747C32.515 43.2105 32.8434 43.1284 33.1717 42.9642C34.2389 42.4717 35.3061 41.897 36.4553 41.4866C37.6866 40.912 37.7687 40.8299 36.9478 39.6806C35.8807 38.203 34.8135 36.8075 33.7464 35.412C32.1867 33.3598 30.627 31.3075 29.1494 29.2553C28.2464 28.106 28.1643 28.106 27.1792 29.1732C26.1121 30.2404 24.9628 31.3075 23.8956 32.3747C23.1568 33.1135 23.1568 33.5239 23.8136 34.2627C26.3583 37.1359 28.9031 40.009 31.5299 42.9642C31.612 43.1284 31.8583 43.2926 32.1046 43.3747Z" fill="black"/>
<path d="M27.7534 47.3138C27.9997 47.1496 28.246 47.0675 28.4102 46.9034C29.149 46.1646 29.8878 45.4258 30.5445 44.687C30.9549 44.2765 31.037 43.8661 30.5445 43.3735C27.9997 40.5004 25.3728 37.7094 22.8281 34.8362C22.2535 34.1795 21.843 34.1795 21.2684 34.9183C20.2833 36.2318 19.2162 37.4631 18.2311 38.6944C17.8206 39.187 17.9027 39.5974 18.3953 40.0079C21.1863 42.2243 23.8952 44.5228 26.6863 46.8213C27.0967 46.9034 27.4251 47.0675 27.7534 47.3138Z" fill="black"/>
<path d="M36.291 21.8648C36.4552 22.1931 36.5373 22.4394 36.7015 22.6857C37.8507 24.4095 39.0821 26.2155 40.2313 27.9394C40.5597 28.4319 40.888 28.5961 41.4627 28.3498C43.1865 27.611 44.9925 26.8722 46.7164 26.1334C47.3731 25.8871 47.5373 25.4767 47.1268 24.82C45.485 22.6036 43.8432 20.4692 42.2835 18.2528C41.8731 17.6782 41.4627 17.5961 40.9701 17.9245C39.4925 18.9916 38.097 20.1409 36.7015 21.2901C36.4552 21.4543 36.3731 21.7006 36.291 21.8648Z" fill="black"/>
<path d="M35.552 35.5731C35.4699 34.4238 35.3878 33.6029 35.3057 32.7C35.1416 31.7149 35.4699 31.0582 36.3729 30.7298C37.2759 30.4015 38.0968 29.9089 38.9177 29.4985C39.4923 29.2522 39.4923 28.8418 39.246 28.4313C38.0147 26.5433 36.7833 24.6552 35.552 22.8492C35.0595 22.1925 34.4848 22.1925 33.9923 22.6851C32.5147 24.0806 30.955 25.4761 29.5595 26.9537C29.3132 27.2 29.2311 27.9388 29.3953 28.1851C31.1192 30.5656 32.9251 32.8641 34.7311 35.2447C34.8953 35.3268 35.1416 35.4089 35.552 35.5731Z" fill="black"/>
<path d="M44.5825 37.5433C42.1199 38.5284 39.9035 37.215 37.687 37.0508C37.4408 37.0508 37.0303 37.0508 36.9482 37.215C36.8661 37.3791 36.8661 37.7896 37.0303 38.0359C37.3587 38.6105 37.7691 39.103 38.1796 39.5956C38.8363 40.3344 39.493 40.5806 40.4781 40.1702C41.7915 39.5956 43.2691 39.1851 44.6646 38.6105C44.9109 38.5284 45.0751 38.2 45.2393 37.9538C44.9109 37.7896 44.7467 37.6254 44.5825 37.5433Z" fill="black"/>
<path d="M26.9338 59.2981C25.9487 57.9026 23.0756 54.619 22.2547 53.0593L29.2323 47.0668C30.9562 44.8504 33.0905 43.4549 35.6353 42.5519C36.1278 42.3877 36.6203 42.0593 37.1129 41.8952C38.3442 41.4026 41.2994 41.3205 41.2994 41.3205L42.2024 41.8952C42.4487 41.6489 43.3517 40.7459 43.9263 40.4176C44.9934 39.925 46.1427 39.5967 47.2098 39.1862C47.6203 39.022 48.0307 38.7758 48.4412 38.6116C48.4412 38.5295 48.4412 38.4474 48.4412 38.3653C48.0307 38.2832 47.7024 38.2012 47.2919 38.1191C45.8964 38.037 45.6502 37.4623 46.3069 36.3131C46.6352 35.6564 46.7994 34.9997 47.0457 34.343C46.9636 34.2609 46.8815 34.2609 46.7173 34.1788C46.3069 34.6713 45.8964 35.0818 45.4039 35.5743C44.3367 36.8056 43.0233 37.4623 41.2994 37.0519C40.0681 36.8056 38.8367 36.6415 37.6054 36.5594C36.7845 36.4773 36.292 36.1489 36.2099 35.328C36.0457 34.5892 36.0457 33.8504 35.9636 33.1116C35.8815 32.2086 36.3741 31.7161 37.195 31.3056C40.8069 29.746 44.4188 28.1042 47.9487 26.4624C48.7695 26.0519 49.3442 26.2982 49.8367 26.9549C52.4636 30.731 55.0904 34.5071 57.7994 38.2832C58.6203 39.4325 58.6203 39.6788 57.7994 40.9101C56.4859 42.8802 55.1725 44.8504 53.777 46.8205C51.4785 50.2683 49.0979 53.716 46.7994 57.1638C46.5531 57.5742 46.3069 58.0668 46.389 58.4772C46.5531 60.119 46.7994 61.8429 47.0457 63.4847C47.5382 66.6861 48.0307 69.9697 48.4412 73.1712C48.6875 74.7309 48.5233 74.813 46.9636 74.813C46.7994 74.813 46.7173 74.813 46.5531 74.813C44.9113 74.813 43.1875 74.813 41.5457 74.813H31.7771V74.7309C30.6278 74.7309 29.4786 74.7309 28.4114 74.7309C27.7547 74.7309 27.3442 74.4025 27.3442 73.6637C27.3442 71.3652 27.3442 69.1488 27.3442 66.8503C27.3442 64.6339 27.4263 62.4175 27.3442 60.119C27.3442 59.8727 27.098 59.5444 26.9338 59.2981Z" fill="black"/>
<path d="M1.23941 54.6996L7.88864 48.8713L7.97073 48.7892L17.6573 40.334L18.7244 41.1549L8.79163 49.8563L8.70953 49.9384C8.13491 50.431 8.38118 52.6474 10.1871 54.6996C11.9931 56.7518 14.1274 57.3265 14.7021 56.8339L14.7841 56.7518L26.1946 46.819L27.2617 47.6399L15.7692 57.7369L15.6871 57.819L9.03789 63.6473C7.64237 64.8787 4.76925 63.8936 2.63493 61.4309C0.500607 58.8862 -0.156111 55.931 1.23941 54.6996ZM3.62 60.528C5.42596 62.5802 7.56028 63.1548 8.13491 62.6623L13.1424 58.2295C11.8289 57.9011 10.4334 56.9981 9.20207 55.6026C7.97073 54.2071 7.23193 52.6474 7.14984 51.334L2.14239 55.7668C1.56776 56.2593 1.81403 58.3936 3.62 60.528Z" fill="black"/>
<path d="M50.821 27.0363L50.0001 25.9692L61.1642 16.2005L61.8209 15.6259C60.5075 15.2976 59.112 14.3946 57.8806 12.9991C56.6493 11.6035 55.9105 10.0438 55.8284 8.73041L44.1717 18.9916L43.3508 17.9244L56.4851 6.26774L72 0.521484L64.2836 15.2155L50.821 27.0363ZM69.209 3.06625L57.306 7.49907C56.8956 8.23788 57.2239 10.208 58.9478 12.0961C60.5896 13.9841 62.5597 14.6408 63.2985 14.3125L69.209 3.06625Z" fill="black"/>
</svg>
