<svg width="52" height="51" viewBox="0 0 52 51" fill="none" xmlns="http://www.w3.org/2000/svg">
<path d="M50.8693 41.9015C51.0386 42.1135 51.1943 42.336 51.3356 42.5676C51.6168 43.0508 51.8131 43.5786 51.916 44.1281C52.1281 45.2757 51.9309 46.4612 51.3589 47.4784C50.7869 48.4955 49.8762 49.2798 48.7854 49.6946C48.236 49.8992 47.6583 50.018 47.0727 50.0467L45.9499 50.0942L41.4586 50.275L36.9388 50.4083C35.1004 50.4331 33.2786 50.0564 31.6007 49.3045C29.9158 48.5479 28.4128 47.4386 27.1931 46.0515C25.9735 44.6645 25.0656 43.0319 24.5308 41.264C23.9075 39.0939 23.855 36.7996 24.3786 34.6033C17.9653 29.2937 11.6217 23.9017 5.34791 18.4272L-4.22452 9.98709L-4.82399 9.44472C-5.08569 9.20532 -5.33349 8.95117 -5.56618 8.68349C-6.04076 8.13001 -6.44949 7.52331 -6.78415 6.87557C-7.64409 5.31251 -8.06199 3.54471 -7.99294 1.76204C-7.92389 -0.0206265 -7.37051 -1.75081 -6.39224 -3.24267C-5.41397 -4.73454 -4.04777 -5.93172 -2.44037 -6.70563C-0.83297 -7.47954 0.954895 -7.80094 2.73119 -7.63532C4.85802 -7.43871 6.86257 -6.55337 8.4404 -5.11376C8.69042 -4.88165 8.9286 -4.63711 9.15405 -4.38107L9.68691 -3.79112L18.108 5.82889C23.5888 12.1407 28.9808 18.5192 34.2841 24.9642C34.4458 24.9642 34.6076 24.8881 34.7789 24.8691C36.5366 24.606 38.3304 24.7249 40.0381 25.2175C41.7457 25.7101 43.3272 26.5649 44.6748 27.7237C45.9704 28.8385 47.0101 30.2199 47.7228 31.7734C48.4355 33.3269 48.8045 35.016 48.8045 36.7252C48.8045 37.1439 48.3192 37.4674 47.7007 37.4674C47.0822 37.4674 46.5589 37.1914 46.5113 36.8679V36.7728C46.3168 35.4874 45.8578 34.2564 45.1634 33.1574C44.469 32.0584 43.5542 31.1154 42.4768 30.388C41.4551 29.6961 40.3002 29.2253 39.086 29.0058C37.8718 28.7862 36.6252 28.8227 35.4259 29.1129C34.2746 29.3707 33.1905 29.8683 32.2445 30.5733C31.2984 31.2783 30.5117 32.1749 29.9356 33.2045C29.3804 34.2144 29.0368 35.3268 28.9256 36.4739C28.8144 37.621 28.938 38.7787 29.2888 39.8764C29.6395 40.9742 30.2102 41.989 30.9659 42.859C31.7217 43.729 32.6467 44.436 33.6846 44.9369C34.7431 45.4396 35.8918 45.7243 37.0625 45.7743L41.5633 45.917L46.0545 46.0978H47.1298C47.287 46.1268 47.4483 46.1268 47.6055 46.0978C47.767 46.0623 47.9199 45.9953 48.0554 45.9006C48.191 45.8059 48.3065 45.6854 48.3953 45.5459C48.6149 45.2464 48.7226 44.8794 48.6998 44.5087C48.6817 44.3132 48.6368 44.1212 48.5666 43.9378L48.4048 43.6428L48.0432 43.1005C47.1204 41.6197 46.6172 39.9161 46.5874 38.1715C46.5874 37.7338 47.1203 37.4103 47.7388 37.4198C48.3573 37.4293 48.8711 37.6862 48.9377 37.9907V38.0859C49.1548 39.3519 49.7105 40.5356 50.5458 41.5114L50.8693 41.9015ZM31.772 25.7255C26.0628 20.0924 20.4266 14.3832 14.8633 8.59785L6.06157 -0.641545L5.51919 -1.21247C5.1462 -1.59808 4.71219 -1.91957 4.23462 -2.164C3.60194 -2.49987 2.90399 -2.69465 2.18882 -2.73492C1.2044 -2.7903 0.225544 -2.55369 -0.624893 -2.05478C-1.47533 -1.55587 -2.15947 -0.816884 -2.59145 0.0694323C-3.02343 0.955748 -3.184 1.94991 -3.05302 2.92715C-2.92203 3.90439 -2.50533 4.82118 -1.8552 5.56246C-1.73512 5.70504 -1.60473 5.83862 -1.46507 5.9621L-0.884636 6.51399L8.36427 15.3062C14.0735 20.806 19.7034 26.3757 25.254 32.0151C25.4498 31.5489 25.6787 31.0974 25.9391 30.6639C27.3306 28.4515 29.3661 26.7181 31.772 25.6969V25.7255Z" fill="black"/>
<path d="M42.4107 14.8605C42.0132 14.8931 41.613 14.8511 41.2308 14.7368C40.6772 13.3541 40.2907 11.9103 40.0795 10.4359C38.6092 10.2401 37.1681 9.86628 35.788 9.32262C35.6757 8.94005 35.6338 8.54026 35.6643 8.14272C35.6318 7.74514 35.6738 7.345 35.788 6.96281C37.1675 6.41526 38.6086 6.0382 40.0795 5.84C40.2898 4.36957 40.6731 2.92912 41.2213 1.54858C41.5933 1.43218 41.9845 1.39014 42.3727 1.42488C42.7577 1.38833 43.1462 1.43042 43.5145 1.54858C44.064 2.92474 44.4442 4.36258 44.6468 5.83049C46.1244 6.03626 47.5716 6.41964 48.9573 6.97233C49.0737 7.34427 49.1157 7.7355 49.081 8.12368C49.1175 8.50875 49.0754 8.89722 48.9573 9.26552C47.5811 9.81504 46.1433 10.1953 44.6754 10.3979C44.4796 11.8743 44.1058 13.3217 43.5621 14.7083C43.1903 14.8269 42.8005 14.8784 42.4107 14.8605Z" fill="black"/>
<path d="M4.72787 37.1401C4.55415 39.2758 4.15547 41.3872 3.53846 43.4392C2.76662 43.6548 1.95049 43.6548 1.17866 43.4392C0.571253 41.395 0.175863 39.2937 -0.00125027 37.1686C-2.13682 36.9938 -4.24812 36.5951 -6.3004 35.9792C-6.44497 35.6037 -6.50035 35.1998 -6.46217 34.7993C-6.50286 34.3987 -6.4474 33.9942 -6.3004 33.6194C-4.2554 33.002 -2.14991 32.6064 -0.020278 32.4395C0.156507 30.3026 0.561629 28.1909 1.18817 26.1403C1.94058 25.9246 2.73847 25.9246 3.49088 26.1403C4.11734 28.1812 4.52249 30.2834 4.69933 32.4109C6.83897 32.5956 8.95339 33.0038 11.008 33.6289C11.1523 33.9944 11.2046 34.3898 11.1602 34.7803C11.205 35.1676 11.1527 35.56 11.008 35.9221C8.9633 36.5479 6.85827 36.9561 4.72787 37.1401Z" fill="black"/>
<path d="M21.0477 -3.85068C20.4197 -3.85068 19.9058 -3.97437 19.8773 -4.14565V-4.19323C19.4967 -6.92413 21.9992 -9.96904 25.2535 -9.99758C26.0635 -10.0205 26.8699 -9.88067 27.625 -9.58648C28.3801 -9.2923 29.0685 -8.84969 29.6496 -8.28482C30.2438 -7.70408 30.7152 -7.0097 31.0356 -6.24302C31.356 -5.47635 31.5189 -4.65305 31.5146 -3.82213C31.5111 -3.00562 31.3443 -2.19806 31.0238 -1.44703C30.7034 -0.696012 30.2359 -0.0167189 29.6489 0.55081C29.0618 1.11834 28.3671 1.56262 27.6057 1.85749C26.8443 2.15235 26.0316 2.29182 25.2154 2.26769C24.4794 2.24544 23.7555 2.07405 23.0876 1.76391C22.4197 1.45376 21.8217 1.01131 21.3297 0.463335C20.8378 -0.0846405 20.4622 -0.726743 20.2256 -1.4241C19.989 -2.12146 19.8964 -2.85958 19.9534 -3.59376C19.9534 -3.76504 20.4768 -3.89825 21.0953 -3.88874C21.4865 -3.9325 21.8825 -3.87687 22.2466 -3.72697C22.4353 -3.14754 22.8304 -2.65769 23.3567 -2.35065C23.8831 -2.0436 24.504 -1.9408 25.1012 -2.06179C25.5127 -2.16492 25.878 -2.40259 26.1389 -2.73704C26.3999 -3.07149 26.5416 -3.48355 26.5416 -3.90777C26.5416 -4.33199 26.3999 -4.74405 26.1389 -5.0785C25.878 -5.41295 25.5127 -5.65061 25.1012 -5.75374C24.5012 -5.87817 23.8763 -5.77458 23.3485 -5.46318C22.8207 -5.15178 22.4279 -4.65492 22.2466 -4.06953C21.8663 -3.91498 21.4581 -3.84048 21.0477 -3.85068Z" fill="black"/>
</svg>
