<svg width="81" height="73" viewBox="0 0 81 73" fill="none" xmlns="http://www.w3.org/2000/svg">
<path d="M12.2158 22.6678C12.2236 22.6386 12.2275 22.6241 12.2353 22.5949C12.2392 22.5803 12.2431 22.5657 12.251 22.5365C12.2549 22.522 12.2627 22.4928 12.2812 22.4821C12.2851 22.4675 12.3075 22.4422 12.3114 22.4277C12.3153 22.4131 12.3338 22.4024 12.3377 22.3878C12.3416 22.3732 12.364 22.348 12.3679 22.3334C12.3718 22.3188 12.3903 22.3081 12.3943 22.2935C12.4127 22.2828 12.4206 22.2537 12.4391 22.243C12.443 22.2284 12.4615 22.2177 12.4654 22.2031C12.4839 22.1925 12.4917 22.1633 12.5102 22.1526C12.5287 22.1419 12.5326 22.1273 12.5511 22.1167C12.5696 22.106 12.5735 22.0914 12.592 22.0807C12.6105 22.07 12.629 22.0594 12.6475 22.0487C12.666 22.038 12.6699 22.0234 12.6884 22.0127C12.7069 22.0021 12.7254 21.9914 12.7438 21.9807C12.7623 21.97 12.7808 21.9593 12.7993 21.9487C12.8178 21.938 12.8363 21.9273 12.8548 21.9166C12.8733 21.906 12.8918 21.8953 12.9103 21.8846C12.9288 21.8739 12.9434 21.8778 12.9619 21.8671C12.9804 21.8565 13.0135 21.8497 13.032 21.839L13.0505 21.8283C13.0505 21.8283 13.065 21.8323 13.069 21.8177C13.0874 21.807 13.1205 21.8002 13.1497 21.808C13.1643 21.8119 13.1828 21.8013 13.1974 21.8052C13.2159 21.7945 13.245 21.8023 13.2781 21.7955C13.2927 21.7995 13.3112 21.7888 13.3258 21.7927C13.3404 21.7966 13.3735 21.7898 13.388 21.7937C13.4026 21.7976 13.4211 21.787 13.4357 21.7909C13.4503 21.7948 13.4834 21.788 13.498 21.7919C13.5126 21.7958 13.5417 21.8036 13.5602 21.793C13.5748 21.7969 13.5894 21.8008 13.6186 21.8086C13.6332 21.8125 13.6623 21.8203 13.6769 21.8242C13.6915 21.8281 13.6915 21.8281 13.7061 21.832L63.0681 35.0586L15.643 16.0036C15.3484 15.8777 15.1104 15.6576 14.9872 15.3588C14.864 15.06 14.8586 14.7303 14.9844 14.4357L15 14.3773C15.0118 14.3336 15.0381 14.2937 15.0537 14.2354L17.527 8.09721C19.0374 4.32759 23.1342 2.28287 27.0581 3.33427C27.3644 3.41635 27.6814 3.51692 27.976 3.64276L45.2334 10.5964C45.248 10.6003 45.2772 10.6081 45.2918 10.612L81.3535 25.1057C83.3438 25.9047 84.8897 27.429 85.7355 29.4067C86.5814 31.3843 86.607 33.5644 85.8079 35.5547L83.2995 41.8241L81.5523 48.3444L71.9725 84.0968C71.8005 84.7387 71.1347 85.1231 70.4929 84.9511L1.73032 66.5262C1.0885 66.3543 0.70408 65.6884 0.876054 65.0466L10.4598 29.2796L12.2265 22.6863C12.2119 22.6824 12.2158 22.6678 12.2158 22.6678ZM12.7791 29.901C12.0521 32.6142 13.4593 35.4145 15.9648 36.508L13.4123 27.538L12.7791 29.901ZM69.2773 22.8548L58.9273 30.7909L64.4139 33.0115L74.7679 25.0608L69.2773 22.8548ZM61.1741 19.6048L50.8241 27.5409L56.3147 29.7469L66.6647 21.8108L61.1741 19.6048ZM53.0855 16.3587L42.7355 24.2948L48.2261 26.5008L58.5761 18.5647L53.0855 16.3587ZM44.9863 13.0941L34.6362 21.0302L40.1268 23.2363L50.4769 15.3001L44.9863 13.0941ZM36.8831 9.84413L26.533 17.7803L32.0236 19.9863L42.3737 12.0501L36.8831 9.84413ZM28.7799 6.59413L18.4299 14.5303L23.9205 16.7363L34.2705 8.80014L28.7799 6.59413ZM80.6617 42.2742L65.7102 38.268L69.2934 50.8599L72.342 51.6768C75.3324 52.478 78.4211 50.6948 79.2223 47.7045C79.2078 47.7005 80.6617 42.2742 80.6617 42.2742ZM62.997 37.541L57.279 36.0088L60.8622 48.6008L66.5802 50.1329L62.997 37.541ZM54.5658 35.2818L48.8478 33.7497L52.431 46.3416L58.149 47.8738L54.5658 35.2818ZM46.1346 33.0227L40.4165 31.4906L43.9852 44.0786L49.7032 45.6107L46.1346 33.0227ZM37.7034 30.7636L31.9853 29.2314L35.5685 41.8234L41.272 43.3516L37.7034 30.7636ZM29.2722 28.5044L23.5541 26.9723L27.1373 39.5642L32.8554 41.0964L29.2722 28.5044ZM20.841 26.2453L15.1375 24.7171L18.7061 37.3051L24.4242 38.8372L20.841 26.2453ZM19.7536 9.0065L18.9087 11.1096L26.0933 5.59286C23.4539 5.05759 20.7741 6.48144 19.7536 9.0065ZM83.5106 30.3583C82.9111 28.9782 81.8375 27.9088 80.4403 27.3468L77.362 26.1155L67.0119 34.0516L81.4827 39.852L83.5668 34.6415C84.1249 33.2588 84.1102 31.7384 83.5106 30.3583ZM3.51196 64.4865L69.9406 82.286L77.7225 53.2436C77.6855 53.2649 77.63 53.297 77.5785 53.3144C77.523 53.3464 77.4675 53.3785 77.4159 53.3959C77.3604 53.428 77.2903 53.4561 77.2349 53.4881C77.1794 53.5202 77.1278 53.5376 77.0723 53.5696C77.0168 53.6017 76.9467 53.6298 76.8806 53.6433C76.829 53.6608 76.7735 53.6928 76.7219 53.7103C76.6519 53.7384 76.6003 53.7558 76.5302 53.784C76.4786 53.8014 76.4232 53.8334 76.357 53.847C76.2869 53.8751 76.2208 53.8887 76.1546 53.9022C76.103 53.9196 76.0368 53.9332 75.9853 53.9506C75.9191 53.9642 75.849 53.9923 75.7829 54.0058C75.7313 54.0233 75.6651 54.0368 75.6135 54.0543C75.5474 54.0678 75.4812 54.0814 75.415 54.0949C75.3635 54.1123 75.2973 54.1259 75.2496 54.1287C75.1835 54.1423 75.1027 54.1519 75.0366 54.1655C74.985 54.1829 74.9227 54.1819 74.8711 54.1993C74.805 54.2128 74.7242 54.2225 74.662 54.2214C74.5997 54.2204 74.5481 54.2378 74.4859 54.2368C74.4051 54.2464 74.3429 54.2454 74.2621 54.255C74.1999 54.2539 74.1522 54.2568 74.086 54.2703C74.0092 54.2654 73.943 54.2789 73.8662 54.274C73.8039 54.2729 73.7563 54.2758 73.694 54.2747C73.6172 54.2698 73.5403 54.2648 73.4635 54.2599C73.4012 54.2588 73.3535 54.2617 73.2952 54.2461C73.2184 54.2411 73.1415 54.2361 73.0647 54.2312C73.0024 54.2301 72.9587 54.2184 72.8964 54.2174C72.8196 54.2124 72.732 54.189 72.6552 54.184C72.6114 54.1723 72.5492 54.1712 72.5054 54.1595C72.414 54.1506 72.3265 54.1272 72.2389 54.1037C72.1952 54.092 72.1475 54.0949 72.1038 54.0831C71.9725 54.048 71.8373 54.0274 71.706 53.9922L16.13 39.1007C15.9987 39.0655 15.8674 39.0303 15.7401 38.9805C15.6963 38.9688 15.6525 38.9571 15.6127 38.9308C15.5252 38.9073 15.4416 38.8693 15.354 38.8458C15.3103 38.8341 15.2558 38.8039 15.2121 38.7922C15.1431 38.758 15.0555 38.7346 14.9865 38.7004C14.9321 38.6702 14.8883 38.6585 14.8339 38.6283C14.7648 38.5941 14.6958 38.56 14.6268 38.5259C14.5723 38.4957 14.5325 38.4694 14.4741 38.4537C14.4051 38.4196 14.3361 38.3855 14.2671 38.3513C14.2126 38.3211 14.1728 38.2948 14.1183 38.2646C14.0493 38.2304 13.9988 38.1856 13.9298 38.1515C13.8753 38.1213 13.8355 38.095 13.7849 38.0502C13.7198 38.0015 13.6654 37.9712 13.6003 37.9225C13.5458 37.8923 13.5099 37.8514 13.4554 37.8212C13.4049 37.7764 13.3359 37.7422 13.2854 37.6974C13.2309 37.6672 13.195 37.6263 13.159 37.5854C13.1085 37.5406 13.0434 37.4919 12.9928 37.4471C12.9569 37.4062 12.9025 37.376 12.8665 37.3351C12.816 37.2903 12.7655 37.2454 12.7003 37.1967C12.6644 37.1558 12.6139 37.111 12.5779 37.0701C12.5274 37.0253 12.4808 36.9659 12.4302 36.9211C12.3943 36.8802 12.3438 36.8354 12.3078 36.7945C12.2573 36.7497 12.2107 36.6903 12.1641 36.6309C12.1281 36.59 12.0922 36.5491 12.0455 36.4897C11.9989 36.4303 11.9484 36.3855 11.9164 36.33C11.8804 36.2891 11.8484 36.2336 11.8124 36.1927C11.7658 36.1333 11.7338 36.0779 11.6832 36.033C11.6512 35.9776 11.6153 35.9367 11.5832 35.8812C11.5512 35.8257 11.5046 35.7663 11.4725 35.7108C11.4405 35.6553 11.4046 35.6144 11.3725 35.5589C11.3366 35.518 11.3191 35.4665 11.2832 35.4256L3.51196 64.4865Z" fill="black"/>
<path d="M76.8713 36.117C76.7254 36.0779 76.5689 36.0204 76.4269 35.9667C74.4366 35.1676 73.4782 32.9096 74.2627 30.9154C75.0003 29.0962 76.984 28.1113 78.8803 28.6194C79.0261 28.6585 79.1827 28.716 79.3246 28.7697C80.2853 29.1522 81.0422 29.8866 81.4544 30.8569C81.856 31.8088 81.8713 32.8603 81.4849 33.8356C80.7512 35.6401 78.7676 36.6251 76.8713 36.117ZM79.2335 31.7939C79.0782 31.4397 78.7936 31.1601 78.426 31.0148C78.3677 30.9991 78.3132 30.9689 78.2549 30.9533C77.5401 30.7617 76.7829 31.1373 76.5184 31.8325C76.2237 32.5822 76.5865 33.4455 77.3362 33.7401C77.3945 33.7558 77.449 33.786 77.5073 33.8016C78.2221 33.9931 78.9647 33.6137 79.2399 32.937C79.3892 32.5548 79.3887 32.1482 79.2335 31.7939Z" fill="black"/>
<path d="M72.2889 49.8333C70.2468 49.2861 69.0149 47.1737 69.566 45.1169C70.1132 43.0748 72.2255 41.8428 74.2823 42.3939C76.3245 42.9411 77.5564 45.0535 77.0053 47.1103C76.4542 49.167 74.3457 50.3844 72.2889 49.8333ZM73.653 44.7424C72.8945 44.5392 72.1031 44.9838 71.896 45.7569C71.6927 46.5154 72.1519 47.3107 72.9104 47.5139C73.6689 47.7172 74.4642 47.258 74.6675 46.4995C74.8746 45.7264 74.4261 44.9496 73.653 44.7424Z" fill="black"/>
<path d="M61.5417 57.8513L21.1506 47.0285C20.5088 46.8566 20.1244 46.1907 20.2963 45.5489C20.4683 44.9071 21.1341 44.5227 21.776 44.6946L62.167 55.5174C62.8089 55.6894 63.1933 56.3552 63.0213 56.997C62.8493 57.6389 62.1835 58.0233 61.5417 57.8513Z" fill="black"/>
<path d="M55.8379 59.6502C56.4798 59.8222 56.8642 60.488 56.6922 61.1298C56.5202 61.7717 55.8544 62.1561 55.2126 61.9841L24.1279 53.655C23.4861 53.483 23.1017 52.8172 23.2737 52.1754C23.4456 51.5335 24.1115 51.1491 24.7533 51.3211L55.8379 59.6502Z" fill="black"/>
<path d="M15.4244 54.0467L64.8448 67.2889C65.4866 67.4609 65.871 68.1267 65.699 68.7685C65.5271 69.4103 64.8612 69.7948 64.2194 69.6228L14.7991 56.3806C14.1572 56.2087 13.7728 55.5428 13.9448 54.901C14.1168 54.2592 14.7826 53.8748 15.4244 54.0467Z" fill="black"/>
</svg>
