<svg width="69" height="69" viewBox="0 0 69 69" fill="none" xmlns="http://www.w3.org/2000/svg">
<path d="M15.3865 58.0094L26.055 51.85C28.3049 50.551 29.0905 47.6579 27.7844 45.3957L24.7439 40.1294C23.4449 37.8795 20.5519 37.0939 18.2896 38.4L7.62115 44.5594C5.37125 45.8584 4.58561 48.7515 5.89173 51.0137L8.9322 56.28C10.2312 58.5299 13.1242 59.3155 15.3865 58.0094ZM7.86967 49.8718C7.19876 48.7097 7.60108 47.2083 8.76311 46.5374L19.4316 40.3779C20.5936 39.707 22.0951 40.1093 22.766 41.2714L25.8065 46.5376C26.4774 47.6997 26.0751 49.2011 24.913 49.872L14.2445 56.0315C13.0825 56.7024 11.581 56.3001 10.9101 55.138L7.86967 49.8718Z" fill="black"/>
<path d="M44.8816 40.9801L55.5377 34.8278C57.7876 33.5288 58.5733 30.6358 57.2672 28.3735L54.2267 23.1072C52.9277 20.8573 50.0347 20.0717 47.7724 21.3778L37.1163 27.5301C34.8664 28.8291 34.0807 31.7222 35.3868 33.9844L38.4273 39.2507C39.7263 41.5006 42.6193 42.2862 44.8816 40.9801ZM37.3648 32.8425C36.6939 31.6804 37.0962 30.179 38.2582 29.5081L48.9144 23.3558C50.0764 22.6849 51.5778 23.0872 52.2487 24.2492L55.2892 29.5155C55.9601 30.6775 55.5578 32.179 54.3958 32.8499L43.7396 39.0022C42.5776 39.6731 41.0762 39.2708 40.4053 38.1087L37.3648 32.8425Z" fill="black"/>
<path d="M56.2756 12.0672C56.2685 12.0548 56.2614 12.0425 56.2614 12.0425C56.2471 12.0178 56.2328 11.993 56.2185 11.9683C56.2114 11.9559 56.2043 11.9436 56.1971 11.9312C56.19 11.9189 56.1757 11.8941 56.1491 11.8765C56.1348 11.8518 56.1153 11.8466 56.101 11.8219C56.0939 11.8095 56.0868 11.7971 56.0673 11.7919C56.0406 11.7743 56.0263 11.7496 55.9997 11.732L55.9926 11.7197C55.9926 11.7197 55.9926 11.7197 55.9854 11.7073L36.1523 -3.65955C35.6685 -4.15493 33.7601 -5.69035 30.4841 -3.79898L24.8223 -0.530111C24.2784 -0.216072 24.0903 0.485906 24.4043 1.02984C24.7184 1.57377 25.4203 1.76186 25.9643 1.44782L31.6261 -1.82104C33.5299 -2.92018 34.3652 -2.21568 34.5074 -2.08352C34.5697 -2.00412 34.6035 -1.97417 34.6905 -1.90905L53.2446 12.4986L-2.80516 44.8589L-6.00548 21.5868C-6.02358 21.4984 -6.04168 21.4099 -6.07214 21.3286C-6.07928 21.3162 -6.42443 20.1474 -4.40941 18.9841L1.25244 15.7152C1.79637 15.4012 1.98446 14.6992 1.67042 14.1553C1.35638 13.6113 0.654406 13.4232 0.110474 13.7373L-5.55137 17.0061C-8.82732 18.8975 -8.45181 21.318 -8.26471 21.9846L-4.83609 46.8226C-4.83609 46.8226 -4.83609 46.8226 -4.82895 46.835L-4.82181 46.8474C-4.82181 46.8474 -4.81468 46.8597 -4.8199 46.8792C-4.81799 46.9111 -4.80372 46.9358 -4.8018 46.9677C-4.79467 46.98 -4.79989 46.9995 -4.79276 47.0119C-4.78562 47.0242 -4.78371 47.0561 -4.76943 47.0808C-4.75516 47.1056 -4.76038 47.1251 -4.74611 47.1498C-4.73897 47.1621 -4.73183 47.1745 -4.72469 47.1869C-4.71042 47.2116 -4.69614 47.2363 -4.68187 47.261C-4.67473 47.2734 -4.67473 47.2734 -4.6676 47.2858L-4.66046 47.2981C-4.66046 47.2981 -4.66046 47.2981 -4.65332 47.3105L4.36104 62.9238C4.51092 63.1834 4.7597 63.3859 5.05219 63.4643L12.033 65.3348C12.3255 65.4132 12.6298 65.3693 12.9018 65.2123L33.2621 53.4572C33.5712 53.2788 33.7822 52.9592 33.8178 52.5925L34.6552 45.0214L41.6306 48.0817C41.9659 48.2343 42.3483 48.2113 42.6573 48.0329L63.0177 36.2778C63.2773 36.128 63.4798 35.8792 63.5582 35.5867L65.4287 28.6059C65.5071 28.3134 65.4632 28.0091 65.3062 27.7371L56.2633 12.0743C56.2756 12.0672 56.2756 12.0672 56.2756 12.0672ZM63.0837 28.4269L61.4587 34.4912L42.0008 45.7253L34.126 42.2776C33.7906 42.1251 33.4083 42.148 33.0993 42.3265C32.7902 42.5049 32.5792 42.8245 32.5436 43.1912L31.6043 51.7277L12.1463 62.9617L6.08203 61.3368L-2.14009 47.0957L54.8615 14.1858L63.0837 28.4269Z" fill="black"/>
<path d="M11.1788 51.2088C11.4261 51.066 11.6286 50.8172 11.7193 50.5176L12.3463 48.1777C12.5083 47.5732 12.1443 46.9427 11.5398 46.7808C10.9353 46.6188 10.3048 46.9828 10.1429 47.5873L9.51589 49.9272C9.35392 50.5317 9.71792 51.1621 10.3224 51.3241C10.622 51.4148 10.9316 51.3515 11.1788 51.2088Z" fill="black"/>
<path d="M13.3013 49.6023C13.6133 49.6859 13.9105 49.6297 14.1701 49.4798C14.4297 49.33 14.6199 49.0883 14.7106 48.7887L15.3376 46.4488C15.4996 45.8443 15.1356 45.2138 14.5311 45.0518C13.9266 44.8899 13.2961 45.2539 13.1342 45.8584L12.5072 48.1983C12.3329 48.8099 12.6969 49.4404 13.3013 49.6023Z" fill="black"/>
<path d="M20.0109 51.2322C20.2581 51.0894 20.4606 50.8407 20.5513 50.541L21.1783 48.2011C21.3403 47.5966 20.9763 46.9662 20.3718 46.8042C19.7673 46.6422 19.1369 47.0062 18.9749 47.6107L18.3479 49.9506C18.1859 50.5551 18.5499 51.1856 19.1544 51.3475C19.4541 51.4383 19.7513 51.3821 20.0109 51.2322Z" fill="black"/>
<path d="M22.1226 49.6355C22.4346 49.7191 22.7318 49.6629 22.9914 49.513C23.2387 49.3703 23.4412 49.1215 23.5319 48.8219L24.1589 46.482C24.3209 45.8775 23.9569 45.247 23.3524 45.0851C22.7479 44.9231 22.1174 45.2871 21.9555 45.8916L21.3285 48.2315C21.1541 48.8431 21.5181 49.4736 22.1226 49.6355Z" fill="black"/>
<path d="M40.6749 34.1795C40.9222 34.0367 41.1247 33.7879 41.2154 33.4883L41.8424 31.1484C42.0044 30.5439 41.6404 29.9134 41.0359 29.7515C40.4314 29.5895 39.8009 29.9535 39.639 30.558L39.012 32.8979C38.85 33.5024 39.214 34.1328 39.8185 34.2948C40.1181 34.3855 40.4277 34.3222 40.6749 34.1795Z" fill="black"/>
<path d="M42.7979 32.5755C43.1099 32.6591 43.4071 32.6029 43.6667 32.453C43.914 32.3103 44.1165 32.0615 44.2072 31.7619L44.8342 29.4219C44.9961 28.8174 44.6321 28.187 44.0277 28.025C43.4232 27.863 42.7927 28.227 42.6307 28.8315L42.0038 31.1714C41.8171 31.7902 42.1811 32.4207 42.7979 32.5755Z" fill="black"/>
<path d="M49.4962 34.2107C49.7435 34.068 49.946 33.8192 50.0367 33.5196L50.6637 31.1796C50.8256 30.5751 50.4616 29.9447 49.8572 29.7827C49.2527 29.6207 48.6222 29.9847 48.4602 30.5892L47.8333 32.9291C47.6713 33.5336 48.0353 34.1641 48.6398 34.3261C48.9394 34.4168 49.249 34.3534 49.4962 34.2107Z" fill="black"/>
<path d="M51.6192 32.6067C51.9312 32.6903 52.2284 32.6341 52.488 32.4843C52.7352 32.3415 52.9377 32.0927 53.0285 31.7931L53.6555 29.4532C53.8174 28.8487 53.4534 28.2182 52.849 28.0563C52.2445 27.8943 51.614 28.2583 51.452 28.8628L50.8251 31.2027C50.6384 31.8215 51.0024 32.4519 51.6192 32.6067Z" fill="black"/>
</svg>
