<svg width="99" height="99" viewBox="0 0 99 99" fill="none" xmlns="http://www.w3.org/2000/svg">
<path d="M43.9883 -13.0117C42.8983 -14.1017 41.1017 -14.1017 40.0117 -13.0117L-13.011 40.011C-14.1011 41.1011 -14.1011 42.8976 -13.011 43.9877L40.0117 97.0104C41.1017 98.1005 42.8983 98.1005 43.9883 97.0104L97.011 43.9877C98.1011 42.8976 98.1011 41.1011 97.011 40.011L43.9883 -13.0117ZM42.6628 -11.6861L95.6854 41.3366C96.0641 41.7152 96.0641 42.2835 95.6854 42.6621L42.6628 95.6848C42.2841 96.0635 41.7159 96.0635 41.3372 95.6848L-11.6854 42.6621C-12.0641 42.2835 -12.0641 41.7152 -11.6854 41.3366L41.3372 -11.6861C41.7159 -12.0647 42.2841 -12.0647 42.6628 -11.6861ZM42.0207 -2.05501C40.4677 -2.05499 39.2039 -0.791198 39.2039 0.761815C39.2039 2.31483 40.447 3.55795 42 3.55793C43.553 3.55791 44.8168 2.29412 44.8168 0.741103C44.6392 -1.04156 43.4821 -1.77296 42.0207 -2.05501ZM83.2583 39.1825C81.7052 39.1826 80.4415 40.4464 80.4414 41.9994C80.4414 43.5524 81.6845 44.7955 83.2375 44.7955C84.7906 44.7955 86.0544 43.5317 86.0544 41.9786C85.8871 40.1938 84.7202 39.4767 83.2583 39.1825ZM64.5346 19.4647C52.0969 7.02705 31.8616 7.02703 19.424 19.4647C6.98639 31.9023 7.04832 52.0757 19.486 64.5134C31.9237 76.951 52.097 77.013 64.5347 64.5754C76.9723 52.1378 76.9723 31.9024 64.5346 19.4647ZM63.2297 20.7696C74.951 32.4909 74.8889 51.4871 63.1677 63.2084C51.4464 74.9296 32.5122 74.9297 20.7909 63.2084C9.06965 51.4871 9.06972 32.5529 20.791 20.8317C32.5122 9.11042 51.5084 9.04834 63.2297 20.7696ZM59.8951 24.1042C50.0198 14.2288 33.9803 14.2287 24.1049 24.1042C14.2294 33.9796 14.2501 49.9985 24.1255 59.8739C34.0009 69.7493 50.0405 69.7906 59.9159 59.9152C69.7913 50.0397 69.7705 33.9796 59.8951 24.1042ZM58.5903 25.4091C67.7492 34.5681 67.7286 49.4099 58.5696 58.5689C49.4106 67.7279 34.5894 67.7279 25.4304 58.5689C16.2714 49.41 16.2921 34.6095 25.4511 25.4505C34.6101 16.2915 49.4313 16.2501 58.5903 25.4091ZM47.9651 36.0343C44.6785 32.7478 39.3215 32.7477 36.0349 36.0343C32.7483 39.3209 32.7484 44.6779 36.035 47.9644C39.3215 51.251 44.6784 51.251 47.965 47.9644C51.2516 44.6778 51.2516 39.3209 47.9651 36.0343ZM46.6395 37.3599C49.2097 39.93 49.2096 44.0687 46.6395 46.6388C44.0693 49.2091 39.9307 49.209 37.3605 46.6388C34.7904 44.0687 34.7903 39.9301 37.3605 37.3599C39.9307 34.7897 44.0693 34.7897 46.6395 37.3599ZM0.783083 39.1826C-0.769865 39.1826 -2.03373 40.4464 -2.03375 41.9994C-2.0337 43.5524 -0.790576 44.7955 0.762372 44.7956C2.31539 44.7955 3.57925 43.5317 3.5792 41.9787C3.40153 40.1961 2.2445 39.4647 0.783083 39.1826ZM42.0206 80.4202C40.4677 80.4201 39.2038 81.684 39.2038 83.237C39.2038 84.7899 40.447 86.0331 41.9999 86.0331C43.5529 86.0331 44.8168 84.7692 44.8167 83.2163C44.6494 81.4314 43.4826 80.7143 42.0206 80.4202Z" fill="black"/>
</svg>
