<svg width="95" height="84" viewBox="0 0 95 84" fill="none" xmlns="http://www.w3.org/2000/svg">
<path d="M92.6771 32.9315C93.1802 31.5641 93.2754 30.133 92.859 28.6862C92.6748 28.0147 92.1029 27.4593 91.3555 27.6156C80.979 21.1247 70.0594 15.6415 58.7006 11.1178C58.3208 10.9781 57.961 11.0183 57.6493 11.1623C48.2699 8.0568 37.4652 8.82548 27.7992 8.3744C27.2875 8.35865 26.9479 8.57865 26.6562 8.90258C26.4484 8.99862 26.2886 9.19859 26.1768 9.50245C19.0227 28.9493 11.8966 48.3202 4.74251 67.7671C4.4351 68.6027 4.97904 69.2341 5.66272 69.4856C11.8375 75.2069 17.8804 81.0523 25.1458 85.45C30.176 88.4217 36.2102 92.8839 42.2142 92.5053C42.7259 92.521 43.0175 92.1971 43.1293 91.8932C52.7902 90.0138 62.1429 87.3311 71.3672 83.8249C72.1706 83.5167 72.2981 82.7012 72.01 82.0777C72.2457 81.9057 72.3296 81.6778 72.3375 81.422C76.6076 74.9721 78.8661 66.4885 81.7969 59.4596C85.2944 50.6556 88.9997 41.7556 92.6771 32.9315ZM80.1564 56.1825C79.27 58.3575 78.4316 60.6365 77.5653 62.9914C75.1576 68.8327 72.55 74.5143 69.8665 80.168C69.6508 80.5199 69.463 80.7958 69.1714 81.1197C68.9836 81.3956 68.8998 81.6235 68.8919 81.8793C60.3949 85.0494 51.7137 87.5479 42.8003 89.2711C42.2606 89.3313 41.769 89.4954 41.2294 89.5556C41.1814 89.4517 41.0295 89.3958 40.8775 89.3399C30.6983 85.5952 21.5416 80.2431 13.4556 73.3874C11.512 71.6374 9.67231 69.8394 7.80469 68.1174C14.7352 49.2783 21.6657 30.4391 28.5962 11.5999C38.5739 11.907 48.3761 12.9256 58.2106 14.5598C58.2865 14.5878 58.3145 14.5118 58.3905 14.5398C68.5103 19.3838 78.5741 24.3798 88.5621 29.3478C88.5621 29.3478 88.5341 29.4238 88.6101 29.4517C88.8982 30.0752 89.1863 30.6986 89.3985 31.2941C89.2666 31.4181 89.1627 31.4661 89.0789 31.694C87.1829 37.5512 85.135 43.3524 83.0111 49.1257C82.0689 51.4526 81.1266 53.7796 80.1564 56.1825Z" fill="black"/>
<path d="M86.0724 29.5527C81.2595 29.507 76.4945 29.5652 71.7017 29.6995C69.5231 29.7605 67.0966 29.5577 65.0464 30.4422C54.8262 24.6987 44.634 18.8794 34.4138 13.136C33.4822 12.6207 32.5434 14.0003 33.4751 14.5155C43.5433 20.203 53.5356 25.8626 63.6038 31.5501C63.5479 31.702 63.568 31.8819 63.692 32.0138C63.664 32.0897 63.5322 32.2137 63.5042 32.2897C57.4164 49.5415 50.9968 66.7575 44.4532 83.8416C44.0899 84.8291 45.6092 85.3881 46.0484 84.4285C52.668 67.3723 59.0116 50.1284 65.0995 32.8766C65.1833 32.6487 65.1632 32.4688 65.0672 32.261C67.5768 30.5968 73.1895 31.2817 76.0876 31.1404C79.3934 31.0629 82.6713 31.0613 85.9212 31.1357C86.9926 31.2711 87.0957 29.5842 86.0724 29.5527Z" fill="black"/>
<path d="M28.7557 44.6908C28.1401 44.7231 28.0484 45.2068 28.1365 45.6705C28.0326 45.7185 27.9287 45.7666 27.7968 45.8905C22.9705 51.2734 20.1358 58.5101 22.7096 65.5803C24.3587 70.2405 29.7703 76.6298 35.3141 75.3919C35.5979 75.3238 35.7577 75.1239 35.9175 74.9239C35.9935 74.9519 36.1454 75.0078 36.3253 74.9877C38.8356 74.9625 39.6618 72.2479 40.5962 70.1767C42.4091 66.1864 43.6982 61.7447 43.1684 57.3238C42.3053 49.5892 36.5304 44.1874 28.7557 44.6908ZM36.4284 73.3007C35.9927 73.3129 35.729 73.5609 35.6172 73.8647C35.4653 73.8089 35.2374 73.725 35.0575 73.7451C28.8422 75.1672 23.973 66.1313 23.507 61.3026C23.0367 55.7824 25.5167 50.9164 29.1485 46.9052C29.3083 46.7053 29.3642 46.5534 29.3441 46.3735C36.0597 46.1704 40.8269 51.029 41.5216 57.5804C41.8628 60.6383 41.2087 63.5887 40.2506 66.4273C39.8795 67.6707 37.9914 73.272 36.4284 73.3007Z" fill="black"/>
<path d="M48.6635 28.5565C47.0789 25.1275 43.5165 23.5582 39.8588 23.42C39.6388 23.0804 39.2869 22.8647 38.8433 23.1327C34.7148 24.9775 32.7393 31.7541 35.3115 35.5464C37.9596 39.3667 43.6656 42.8457 47.465 38.3788C47.7846 37.9789 47.6406 37.6671 47.3926 37.4034C49.0902 34.6644 50.0081 31.466 48.6635 28.5565ZM36.6781 34.4105C34.9939 31.721 36.1668 26.8915 38.8362 25.0275C42.1141 25.0259 45.7202 26.0076 47.2088 29.2288C48.5734 32.3181 46.964 35.5208 45.0464 37.9202C44.8866 38.1202 44.8307 38.2721 44.8508 38.4519C41.9413 39.7965 38.1903 36.8642 36.6781 34.4105Z" fill="black"/>
<path d="M34.7566 61.9034C33.6214 62.1758 32.2899 61.341 32.5091 60.0417C32.896 58.2867 34.707 58.5217 35.8386 59.1967C36.7702 59.7119 37.681 58.4083 36.7773 57.8171C35.5697 57.1142 34.2024 56.6111 32.8515 57.2354C31.8404 57.6396 31.1453 58.5913 30.83 59.6828C30.2955 62.0735 32.6669 64.0671 34.9372 63.5223C36.1483 63.2779 35.8157 61.6031 34.7566 61.9034Z" fill="black"/>
<path d="M35.5708 51.2504C34.6671 50.6592 33.7284 52.0388 34.6321 52.63C39.8063 55.9134 37.3688 66.056 33.8768 69.6873C33.1616 70.4592 34.1735 71.6939 34.9647 70.95C39.1719 66.5468 41.8007 55.1809 35.5708 51.2504Z" fill="black"/>
<path d="M45.1969 34.6963C45.4764 33.9366 44.5805 33.0896 43.9213 33.7095C43.2899 34.2535 43.0368 31.6593 43.0447 31.4034C43.0884 30.8158 43.7713 29.4283 44.6191 30.1715C45.391 30.8866 46.7296 29.8267 45.8818 29.0836C45.6338 28.8199 45.4059 28.736 45.13 28.5483C45.13 28.5483 45.158 28.4723 45.082 28.4444C44.4577 27.0935 42.9943 26.3827 41.5754 26.7232C40.5442 26.9475 40.8008 28.5943 41.832 28.37C42.2957 28.2818 42.7035 28.3456 43.1034 28.6652C42.1682 29.0973 41.4451 30.125 41.3578 31.3003C41.2983 32.3996 41.4589 33.8386 42.1469 34.7817C42.5189 35.1773 42.9187 35.4968 43.4304 35.5126C43.1667 35.7606 42.951 36.1124 42.6873 36.3604C42.0961 37.2641 43.4757 38.2028 44.0669 37.2991C44.4144 36.8233 44.838 36.3754 45.3095 36.0314C45.9888 35.5913 45.7287 34.8919 45.1969 34.6963Z" fill="black"/>
</svg>
