<svg width="77" height="75" viewBox="0 0 51 50" fill="none" xmlns="http://www.w3.org/2000/svg">
<path d="M48.3385 34.7738C49.4326 30.6064 50.025 26.7713 50.0967 23.3718C50.1132 22.5885 50.1025 21.8151 50.0646 21.0729C49.8138 16.0959 48.3278 11.9435 45.6481 8.73115C42.8833 5.41681 38.7678 3.00915 33.416 1.57515C28.0643 0.141153 23.2964 0.168506 19.2448 1.65641C15.3178 3.09856 11.9547 5.9516 9.24914 10.1363C8.84524 10.7602 8.4491 11.4247 8.07187 12.1113C6.43421 15.0912 5.02972 18.7086 3.89353 22.8648C3.02463 22.8187 2.20794 23.389 1.9722 24.2688L0.11622 31.1954C-0.154112 32.2043 0.440226 33.2432 1.44116 33.5114L2.93134 33.9107C2.54998 36.0965 3.88415 38.2533 6.05082 38.8339C7.10453 39.1162 8.21171 38.9842 9.1659 38.4784C9.49116 39.537 10.3287 40.3646 11.4209 40.6573L25.7996 44.51L28.9394 49.0975C28.9928 49.1754 29.0711 49.2295 29.1587 49.2529C29.212 49.2672 29.2689 49.2702 29.3255 49.2602C29.4751 49.2339 29.5961 49.1226 29.6357 48.975L30.4949 45.7682L32.9233 46.4188C34.0155 46.7115 35.1547 46.4135 35.9657 45.6594C36.5392 46.5746 37.432 47.2425 38.4857 47.5248C40.6522 48.1053 42.8862 46.9045 43.6488 44.8209L45.139 45.2202C46.1399 45.4884 47.1741 44.8859 47.4444 43.877L49.3004 36.9504C49.5361 36.0706 49.114 35.1683 48.3385 34.7738ZM49.2977 21.3626C49.3174 21.826 49.3276 22.2997 49.3259 22.7808C47.964 22.2301 46.7978 21.9196 45.7853 21.8382C45.7882 21.3464 45.7769 20.8579 45.75 20.3776C46.9289 20.5439 48.119 20.8753 49.2977 21.3626ZM9.76836 10.7708C11.0329 10.9381 12.2292 11.2461 13.3333 11.6916C13.0699 12.0941 12.8158 12.5114 12.5724 12.9388C11.655 12.5031 10.4897 12.1888 9.03492 11.9849C9.27398 11.5675 9.51961 11.1624 9.76836 10.7708ZM3.11649 33.1487L1.64406 32.7542C1.05734 32.597 0.709025 31.988 0.867461 31.3967L2.72344 24.4701C2.8819 23.8787 3.48811 23.5256 4.07474 23.6828L5.54717 24.0773L3.11649 33.1487ZM5.76734 23.3247L4.65551 23.0268C5.74382 19.0557 7.07874 15.592 8.62739 12.7212C10.1207 12.9094 11.2942 13.2071 12.1937 13.6263C11.1388 15.6201 10.2491 17.9241 9.54427 20.4849C7.84006 20.5951 6.35735 21.7133 5.76734 23.3247ZM39.9167 29.8637C39.0134 30.4492 38.3647 31.3398 38.0835 32.3896L35.4499 42.2182C35.2094 43.1158 35.2629 44.0676 35.5966 44.9259C34.9757 45.6153 34.0297 45.9037 33.1262 45.6616L30.3222 44.9103C30.1148 44.8547 29.9012 44.9792 29.8451 45.1883L29.1039 47.9545L26.3598 43.9454C26.3074 43.8689 26.2298 43.8138 26.1406 43.7899L11.6238 39.9002C10.7203 39.6581 10.0452 38.9351 9.85226 38.0278C10.5704 37.4513 11.0927 36.6539 11.3332 35.7563L13.9668 25.9276C14.2481 24.8778 14.1316 23.7822 13.6421 22.8234L13.6999 22.6077C14.0553 21.2815 15.4148 20.4894 16.7305 20.842L38.2329 26.6035C39.5486 26.9561 40.3299 28.3218 39.9746 29.648L39.9168 29.8637L39.9167 29.8637ZM43.3658 29.3119C42.5111 29.0829 41.627 29.1235 40.8101 29.4186C41.0181 27.8191 40.0233 26.2717 38.4357 25.8463L16.9333 20.0847C15.3458 19.6593 13.7105 20.502 13.0908 21.9912C12.531 21.3273 11.7857 20.85 10.931 20.621C10.7383 20.5694 10.542 20.5325 10.3444 20.508C11.0675 17.9262 11.9824 15.619 13.0673 13.6447C13.4324 12.9799 13.8269 12.3375 14.2396 11.7353C18.4202 5.64047 24.4999 3.6112 32.3098 5.70386C40.1197 7.79652 44.3702 12.5937 44.9432 19.9621C44.9996 20.6901 45.0201 21.4437 45.0038 22.2021C44.9561 24.4542 44.5949 26.9098 43.9303 29.5073C43.7469 29.4297 43.5586 29.3635 43.3658 29.3119ZM44.1855 30.0691L44.1856 30.0686L44.1857 30.0686L44.1855 30.0691ZM44.6348 29.8875C45.3047 27.3178 45.6863 24.8773 45.7696 22.6231C46.7583 22.7097 47.9233 23.0387 49.3108 23.6222C49.2165 26.8828 48.6407 30.5498 47.5977 34.5331L46.4858 34.2352C46.7805 32.5446 46.0555 30.8349 44.6348 29.8875ZM46.6932 43.6757C46.5347 44.2671 45.9285 44.6202 45.3419 44.463L43.8694 44.0685L46.3001 34.997L47.7726 35.3916C48.3593 35.5488 48.7076 36.1578 48.5491 36.7491L46.6932 43.6757Z" fill="black"/>
</svg>
