<svg width="73" height="68" viewBox="0 0 73 68" fill="none" xmlns="http://www.w3.org/2000/svg">
<path fill-rule="evenodd" clip-rule="evenodd" d="M39.8272 17.6423C45.1517 16.1953 50.6669 19.3536 52.1139 24.678L55.8465 38.4136C57.2934 43.7381 54.1352 49.2533 48.8108 50.7002C43.4821 52.1317 37.9865 48.9847 36.5396 43.6603L32.8069 29.9247C31.3558 24.5848 34.5028 19.0892 39.8272 17.6423ZM49.205 52.1509C55.332 50.4859 58.9623 44.1463 57.2972 38.0194L53.5646 24.2838C51.8996 18.1568 45.56 14.5265 39.433 16.1915C33.306 17.8566 29.6757 24.1961 31.3408 30.3231L35.0734 44.0587C36.7384 50.1857 43.078 53.816 49.205 52.1509Z" fill="black"/>
<path fill-rule="evenodd" clip-rule="evenodd" d="M35.3674 42.2734L56.1406 36.6283C56.5418 36.5193 56.7778 36.1071 56.6688 35.7058C56.5598 35.3046 56.1476 35.0685 55.7463 35.1776L34.9732 40.8227C34.5719 40.9317 34.3359 41.3439 34.445 41.7452C34.554 42.1464 34.9662 42.3825 35.3674 42.2734ZM36.4666 45.9522L57.0545 40.3574C57.4558 40.2484 57.6918 39.8362 57.5828 39.435C57.4737 39.0337 57.0615 38.7977 56.6603 38.9067L36.0724 44.5015C35.6711 44.6105 35.4351 45.0227 35.5441 45.424C35.6532 45.8252 36.0653 46.0613 36.4666 45.9522Z" fill="black"/>
<path fill-rule="evenodd" clip-rule="evenodd" d="M37.3273 39.0563L37.3427 39.0521C37.744 38.9431 37.98 38.5309 37.8709 38.1297C37.7619 37.7284 37.3497 37.4924 36.9485 37.6014L36.933 37.6056C36.5318 37.7147 36.2957 38.1268 36.4048 38.5281C36.5138 38.9294 36.926 39.1654 37.3273 39.0563Z" fill="black"/>
<path fill-rule="evenodd" clip-rule="evenodd" d="M40.4288 38.2106L40.4443 38.2064C40.8455 38.0974 41.0816 37.6852 40.9725 37.284C40.8635 36.8827 40.4513 36.6467 40.05 36.7557L40.0346 36.7599C39.6333 36.8689 39.3973 37.2811 39.5064 37.6824C39.6 38.0878 40.0121 38.3239 40.4288 38.2106Z" fill="black"/>
<path fill-rule="evenodd" clip-rule="evenodd" d="M43.5157 37.3727L43.5312 37.3685C43.9324 37.2595 44.1685 36.8473 44.0594 36.4461C43.9504 36.0448 43.5382 35.8088 43.1369 35.9178L43.1215 35.922C42.7202 36.0311 42.4842 36.4432 42.5933 36.8445C42.7023 37.2458 43.1145 37.4818 43.5157 37.3727Z" fill="black"/>
<path fill-rule="evenodd" clip-rule="evenodd" d="M46.6183 36.5309L46.6337 36.5267C47.035 36.4177 47.271 36.0055 47.162 35.6043C47.0529 35.203 46.6407 34.967 46.2395 35.076L46.224 35.0802C45.8228 35.1893 45.5868 35.6014 45.6958 36.0027C45.7894 36.4082 46.217 36.64 46.6183 36.5309Z" fill="black"/>
<path fill-rule="evenodd" clip-rule="evenodd" d="M49.7042 35.6911L49.7197 35.6869C50.1209 35.5779 50.3569 35.1657 50.2479 34.7644C50.1389 34.3632 49.7267 34.1271 49.3254 34.2362L49.31 34.2404C48.9087 34.3494 48.6727 34.7616 48.7817 35.1629C48.8908 35.5641 49.303 35.8001 49.7042 35.6911Z" fill="black"/>
<path fill-rule="evenodd" clip-rule="evenodd" d="M52.8068 34.8473L52.8222 34.8432C53.2235 34.7341 53.4595 34.3219 53.3504 33.9207C53.2414 33.5194 52.8292 33.2834 52.428 33.3924L52.4125 33.3966C52.0113 33.5057 51.7752 33.9178 51.8843 34.3191C51.9933 34.7204 52.4055 34.9564 52.8068 34.8473Z" fill="black"/>
<path fill-rule="evenodd" clip-rule="evenodd" d="M36.5675 36.2614L36.5829 36.2572C36.9842 36.1482 37.2202 35.736 37.1112 35.3347C37.0021 34.9335 36.59 34.6974 36.1887 34.8065L36.1733 34.8107C35.772 34.9197 35.536 35.3319 35.645 35.7332C35.7541 36.1344 36.1662 36.3705 36.5675 36.2614Z" fill="black"/>
<path fill-rule="evenodd" clip-rule="evenodd" d="M39.67 35.4177L39.6855 35.4135C40.0867 35.3044 40.3228 34.8922 40.2137 34.491C40.1047 34.0897 39.6925 33.8537 39.2912 33.9627L39.2758 33.9669C38.8745 34.076 38.6385 34.4882 38.7476 34.8894C38.8412 35.2949 39.2533 35.5309 39.67 35.4177Z" fill="black"/>
<path fill-rule="evenodd" clip-rule="evenodd" d="M42.756 34.5798L42.7714 34.5756C43.1727 34.4665 43.4087 34.0544 43.2997 33.6531C43.1906 33.2518 42.7784 33.0158 42.3772 33.1249L42.3617 33.129C41.9605 33.2381 41.7245 33.6503 41.8335 34.0515C41.9425 34.4528 42.3547 34.6888 42.756 34.5798Z" fill="black"/>
<path fill-rule="evenodd" clip-rule="evenodd" d="M45.8585 33.736L45.874 33.7318C46.2752 33.6228 46.5112 33.2106 46.4022 32.8093C46.2932 32.4081 45.881 32.1721 45.4797 32.2811L45.4643 32.2853C45.063 32.3943 44.827 32.8065 44.936 33.2078C45.0296 33.6132 45.4573 33.8451 45.8585 33.736Z" fill="black"/>
<path fill-rule="evenodd" clip-rule="evenodd" d="M48.9464 32.8981L48.9618 32.8939C49.3631 32.7849 49.5991 32.3727 49.4901 31.9715C49.381 31.5702 48.9689 31.3342 48.5676 31.4432L48.5522 31.4474C48.1509 31.5564 47.9149 31.9686 48.0239 32.3699C48.133 32.7711 48.5451 33.0072 48.9464 32.8981Z" fill="black"/>
<path fill-rule="evenodd" clip-rule="evenodd" d="M52.047 32.0544L52.0624 32.0502C52.4637 31.9411 52.6997 31.529 52.5907 31.1277C52.4816 30.7264 52.0695 30.4904 51.6682 30.5995L51.6528 30.6037C51.2515 30.7127 51.0155 31.1249 51.1245 31.5261C51.2336 31.9274 51.6457 32.1634 52.047 32.0544Z" fill="black"/>
<path fill-rule="evenodd" clip-rule="evenodd" d="M35.8126 33.4841L35.8281 33.4799C36.2293 33.3708 36.4653 32.9587 36.3563 32.5574C36.2473 32.1561 35.8351 31.9201 35.4338 32.0291L35.4184 32.0333C35.0171 32.1424 34.7811 32.5546 34.8901 32.9558C34.9992 33.3571 35.4114 33.5931 35.8126 33.4841Z" fill="black"/>
<path fill-rule="evenodd" clip-rule="evenodd" d="M38.9152 32.6403L38.9306 32.6361C39.3319 32.5271 39.5679 32.1149 39.4588 31.7136C39.3498 31.3124 38.9376 31.0764 38.5364 31.1854L38.5209 31.1896C38.1197 31.2986 37.8836 31.7108 37.9927 32.1121C38.0863 32.5175 38.4985 32.7536 38.9152 32.6403Z" fill="black"/>
<path fill-rule="evenodd" clip-rule="evenodd" d="M42.0021 31.8005L42.0175 31.7963C42.4188 31.6872 42.6548 31.2751 42.5458 30.8738C42.4367 30.4725 42.0245 30.2365 41.6233 30.3456L41.6078 30.3497C41.2066 30.4588 40.9706 30.871 41.0796 31.2722C41.1886 31.6735 41.6008 31.9095 42.0021 31.8005Z" fill="black"/>
<path fill-rule="evenodd" clip-rule="evenodd" d="M45.1036 30.9587L45.1191 30.9545C45.5203 30.8454 45.7564 30.4333 45.6473 30.032C45.5383 29.6307 45.1261 29.3947 44.7248 29.5038L44.7094 29.508C44.3081 29.617 44.0721 30.0292 44.1812 30.4304C44.2748 30.8359 44.7024 31.0677 45.1036 30.9587Z" fill="black"/>
<path fill-rule="evenodd" clip-rule="evenodd" d="M48.1905 30.1208L48.206 30.1166C48.6072 30.0075 48.8433 29.5954 48.7342 29.1941C48.6252 28.7928 48.213 28.5568 47.8117 28.6659L47.7963 28.6701C47.3951 28.7791 47.159 29.1913 47.2681 29.5925C47.3771 29.9938 47.7893 30.2298 48.1905 30.1208Z" fill="black"/>
<path fill-rule="evenodd" clip-rule="evenodd" d="M51.2921 29.277L51.3075 29.2728C51.7088 29.1638 51.9448 28.7516 51.8358 28.3504C51.7267 27.9491 51.3146 27.7131 50.9133 27.8221L50.8979 27.8263C50.4966 27.9354 50.2606 28.3475 50.3696 28.7488C50.4787 29.1501 50.8909 29.3861 51.2921 29.277Z" fill="black"/>
<path fill-rule="evenodd" clip-rule="evenodd" d="M35.0538 30.6891L35.0693 30.685C35.4705 30.5759 35.7066 30.1637 35.5975 29.7625C35.4885 29.3612 35.0763 29.1252 34.675 29.2342L34.6596 29.2384C34.2583 29.3475 34.0223 29.7596 34.1314 30.1609C34.2404 30.5622 34.6526 30.7982 35.0538 30.6891Z" fill="black"/>
<path fill-rule="evenodd" clip-rule="evenodd" d="M38.1564 29.8473L38.1718 29.8432C38.5731 29.7341 38.8091 29.3219 38.7 28.9207C38.591 28.5194 38.1788 28.2834 37.7776 28.3924L37.7621 28.3966C37.3609 28.5057 37.1248 28.9178 37.2339 29.3191C37.3275 29.7246 37.7397 29.9606 38.1564 29.8473Z" fill="black"/>
<path fill-rule="evenodd" clip-rule="evenodd" d="M41.2423 29.0095L41.2577 29.0053C41.659 28.8962 41.895 28.484 41.786 28.0828C41.6769 27.6815 41.2648 27.4455 40.8635 27.5545L40.8481 27.5587C40.4468 27.6678 40.2108 28.08 40.3198 28.4812C40.4289 28.8825 40.841 29.1185 41.2423 29.0095Z" fill="black"/>
<path fill-rule="evenodd" clip-rule="evenodd" d="M44.3448 28.1657L44.3603 28.1615C44.7615 28.0525 44.9976 27.6403 44.8885 27.239C44.7795 26.8378 44.3673 26.6017 43.966 26.7108L43.9506 26.715C43.5493 26.824 43.3133 27.2362 43.4224 27.6375C43.516 28.0429 43.9436 28.2748 44.3448 28.1657Z" fill="black"/>
<path fill-rule="evenodd" clip-rule="evenodd" d="M47.4308 27.3259L47.4462 27.3217C47.8475 27.2126 48.0835 26.8005 47.9745 26.3992C47.8654 25.9979 47.4532 25.7619 47.052 25.8709L47.0365 25.8751C46.6353 25.9842 46.3993 26.3964 46.5083 26.7976C46.6173 27.1989 47.0295 27.4349 47.4308 27.3259Z" fill="black"/>
<path fill-rule="evenodd" clip-rule="evenodd" d="M50.5333 26.4821L50.5488 26.4779C50.95 26.3689 51.186 25.9567 51.077 25.5554C50.968 25.1542 50.5558 24.9182 50.1545 25.0272L50.1391 25.0314C49.7378 25.1404 49.5018 25.5526 49.6108 25.9539C49.7199 26.3551 50.1321 26.5912 50.5333 26.4821Z" fill="black"/>
<path fill-rule="evenodd" clip-rule="evenodd" d="M34.295 27.8962L34.3105 27.892C34.7117 27.7829 34.9478 27.3708 34.8387 26.9695C34.7297 26.5682 34.3175 26.3322 33.9162 26.4413L33.9008 26.4455C33.4995 26.5545 33.2635 26.9667 33.3726 27.3679C33.4816 27.7692 33.8938 28.0052 34.295 27.8962Z" fill="black"/>
<path fill-rule="evenodd" clip-rule="evenodd" d="M37.3966 27.0544L37.412 27.0502C37.8133 26.9411 38.0493 26.529 37.9403 26.1277C37.8312 25.7264 37.4191 25.4904 37.0178 25.5995L37.0024 25.6037C36.6011 25.7127 36.3651 26.1249 36.4741 26.5261C36.5677 26.9316 36.9799 27.1676 37.3966 27.0544Z" fill="black"/>
<path fill-rule="evenodd" clip-rule="evenodd" d="M40.4835 26.2145L40.499 26.2103C40.9002 26.1013 41.1362 25.6891 41.0272 25.2879C40.9182 24.8866 40.506 24.6506 40.1047 24.7596L40.0893 24.7638C39.688 24.8729 39.452 25.285 39.561 25.6863C39.6701 26.0876 40.0823 26.3236 40.4835 26.2145Z" fill="black"/>
<path fill-rule="evenodd" clip-rule="evenodd" d="M43.5851 25.3708L43.6005 25.3666C44.0018 25.2575 44.2378 24.8454 44.1288 24.4441C44.0197 24.0428 43.6075 23.8068 43.2063 23.9159L43.1908 23.9201C42.7896 24.0291 42.5536 24.4413 42.6626 24.8425C42.7562 25.248 43.1838 25.4798 43.5851 25.3708Z" fill="black"/>
<path fill-rule="evenodd" clip-rule="evenodd" d="M46.673 24.5329L46.6884 24.5287C47.0897 24.4197 47.3257 24.0075 47.2166 23.6062C47.1076 23.205 46.6954 22.9689 46.2942 23.078L46.2787 23.0822C45.8775 23.1912 45.6414 23.6034 45.7505 24.0046C45.8595 24.4059 46.2717 24.6419 46.673 24.5329Z" fill="black"/>
<path fill-rule="evenodd" clip-rule="evenodd" d="M49.7745 23.6911L49.79 23.6869C50.1912 23.5779 50.4273 23.1657 50.3182 22.7644C50.2092 22.3632 49.797 22.1271 49.3957 22.2362L49.3803 22.2404C48.979 22.3494 48.743 22.7616 48.8521 23.1629C48.9611 23.5641 49.3733 23.8001 49.7745 23.6911Z" fill="black"/>
<path fill-rule="evenodd" clip-rule="evenodd" d="M37.4269 21.0641L37.4423 21.0599C37.8436 20.9509 38.0796 20.5387 37.9706 20.1375C37.8615 19.7362 37.4493 19.5002 37.0481 19.6092L37.0326 19.6134C36.6314 19.7225 36.3954 20.1346 36.5044 20.5359C36.6134 20.9372 37.0256 21.1732 37.4269 21.0641Z" fill="black"/>
<path fill-rule="evenodd" clip-rule="evenodd" d="M40.5128 20.2243L40.5282 20.2201C40.9295 20.1111 41.1655 19.6989 41.0565 19.2976C40.9474 18.8964 40.5353 18.6603 40.134 18.7694L40.1186 18.7736C39.7173 18.8826 39.4813 19.2948 39.5903 19.6961C39.6994 20.0973 40.1116 20.3333 40.5128 20.2243Z" fill="black"/>
<path fill-rule="evenodd" clip-rule="evenodd" d="M43.6154 19.3825L43.6308 19.3783C44.0321 19.2693 44.2681 18.8571 44.159 18.4558C44.05 18.0546 43.6378 17.8185 43.2366 17.9276L43.2211 17.9318C42.8199 18.0408 42.5838 18.453 42.6929 18.8543C42.8019 19.2555 43.2141 19.4915 43.6154 19.3825Z" fill="black"/>
<path fill-rule="evenodd" clip-rule="evenodd" d="M35.0831 24.7009L35.0986 24.6967C35.4998 24.5876 35.7358 24.1755 35.6268 23.7742C35.5178 23.3729 35.1056 23.1369 34.7043 23.2459L34.6889 23.2501C34.2876 23.3592 34.0516 23.7714 34.1606 24.1726C34.2697 24.5739 34.6819 24.8099 35.0831 24.7009Z" fill="black"/>
<path fill-rule="evenodd" clip-rule="evenodd" d="M38.1847 23.8571L38.2001 23.8529C38.6014 23.7439 38.8374 23.3317 38.7284 22.9304C38.6193 22.5292 38.2072 22.2932 37.8059 22.4022L37.7905 22.4064C37.3892 22.5154 37.1532 22.9276 37.2622 23.3289C37.3713 23.7301 37.7834 23.9662 38.1847 23.8571Z" fill="black"/>
<path fill-rule="evenodd" clip-rule="evenodd" d="M41.2726 23.0173L41.288 23.0131C41.6893 22.904 41.9253 22.4919 41.8163 22.0906C41.7072 21.6893 41.295 21.4533 40.8938 21.5624L40.8783 21.5665C40.4771 21.6756 40.2411 22.0878 40.3501 22.489C40.4591 22.8903 40.8713 23.1263 41.2726 23.0173Z" fill="black"/>
<path fill-rule="evenodd" clip-rule="evenodd" d="M44.3741 22.1755L44.3896 22.1713C44.7908 22.0622 45.0269 21.6501 44.9178 21.2488C44.8088 20.8475 44.3966 20.6115 43.9953 20.7206L43.9799 20.7247C43.5786 20.8338 43.3426 21.246 43.4517 21.6472C43.5607 22.0485 43.9729 22.2845 44.3741 22.1755Z" fill="black"/>
<path fill-rule="evenodd" clip-rule="evenodd" d="M47.4757 21.3317L47.4911 21.3275C47.8924 21.2185 48.1284 20.8063 48.0194 20.405C47.9103 20.0038 47.4982 19.7678 47.0969 19.8768L47.0815 19.881C46.6802 19.99 46.4442 20.4022 46.5532 20.8035C46.6468 21.2089 47.059 21.445 47.4757 21.3317Z" fill="black"/>
<path fill-rule="evenodd" clip-rule="evenodd" d="M48.2981 56.0103L51.9558 55.0163C59.194 53.0494 63.4761 45.5714 61.5091 38.3332L59.8315 32.1599C59.7225 31.7587 59.3103 31.5226 58.9091 31.6317C58.5078 31.7407 58.2718 32.1529 58.3808 32.5542L60.0584 38.7274C61.8031 45.1477 57.993 51.8013 51.5728 53.546L47.9151 54.54C41.4949 56.2847 34.8413 52.4746 33.0966 46.0543L31.419 39.8811C31.3099 39.4798 30.8978 39.2438 30.4965 39.3528C30.0952 39.4619 29.8592 39.874 29.9683 40.2753L31.6459 46.4486C33.582 53.6951 41.0599 57.9773 48.2981 56.0103ZM49.1663 59.205L52.8239 58.211C61.8215 55.7659 67.1489 46.4626 64.7038 37.4651L63.0262 31.2918C62.9172 30.8905 62.505 30.6545 62.1037 30.7635C61.7025 30.8726 61.4665 31.2847 61.5755 31.686L63.2531 37.8593C65.4801 46.0543 60.6206 54.5178 52.441 56.7407L48.7833 57.7346C40.6037 59.9574 32.1247 55.1021 29.9019 46.9225L28.2243 40.7492C28.1153 40.3479 27.7031 40.1119 27.3018 40.221C26.9006 40.33 26.6645 40.7422 26.7736 41.1434L28.4512 47.3167C30.8654 56.3227 40.1687 61.6501 49.1663 59.205Z" fill="black"/>
<path fill-rule="evenodd" clip-rule="evenodd" d="M55.4647 34.1421L62.9035 32.1206C63.7987 31.8773 64.3115 30.959 64.0724 30.0793L63.2965 27.2242C63.0533 26.3291 62.135 25.8163 61.2553 26.0553L53.8165 28.0768C53.4152 28.1859 53.1792 28.598 53.2882 28.9993C53.3973 29.4006 53.8095 29.6366 54.2107 29.5275L61.6495 27.506C61.7267 27.4851 61.8206 27.5258 61.8458 27.6184L62.6217 30.4736C62.6427 30.5507 62.6019 30.6447 62.5093 30.6698L55.0705 32.6913C54.6692 32.8004 54.4332 33.2126 54.5422 33.6138C54.6513 34.0151 55.0635 34.2511 55.4647 34.1421Z" fill="black"/>
<path fill-rule="evenodd" clip-rule="evenodd" d="M27.2687 41.8053L34.6921 39.788C35.0934 39.6789 35.3294 39.2667 35.2204 38.8655C35.1113 38.4642 34.6992 38.2282 34.2979 38.3372L26.8745 40.3545C26.7819 40.3797 26.6992 40.3193 26.6782 40.2421L25.9065 37.4024C25.8814 37.3098 25.9418 37.2271 26.0189 37.2062L33.4423 35.1889C33.8436 35.0798 34.0796 34.6676 33.9706 34.2664C33.8615 33.8651 33.4493 33.6291 33.0481 33.7381L25.6247 35.7554C24.7296 35.9987 24.2013 36.9212 24.4446 37.8163L25.2163 40.656C25.4511 41.5203 26.3736 42.0485 27.2687 41.8053Z" fill="black"/>
<path fill-rule="evenodd" clip-rule="evenodd" d="M56.3292 66.1093C56.7305 66.0003 56.9665 65.5881 56.8575 65.1868L54.6053 56.8992C54.4963 56.4979 54.0841 56.2619 53.6828 56.3709C53.2816 56.48 53.0456 56.8922 53.1546 57.2934L55.4068 65.5811C55.5158 65.9823 55.928 66.2184 56.3292 66.1093ZM50.1251 67.7953C50.5264 67.6862 50.7624 67.2741 50.6533 66.8728L48.4012 58.5852C48.2921 58.1839 47.88 57.9479 47.4787 58.0569C47.0774 58.166 46.8414 58.5781 46.9504 58.9794L49.2026 67.267C49.3117 67.6683 49.7238 67.9043 50.1251 67.7953Z" fill="black"/>
<path fill-rule="evenodd" clip-rule="evenodd" d="M61.1362 68.9129L47.4006 72.6456L46.6205 69.775C46.4737 69.2348 46.7884 68.6853 47.3286 68.5385L59.135 65.3301C59.6752 65.1833 60.2247 65.498 60.3715 66.0381L61.1362 68.9129ZM47.0737 74.3088L62.2754 70.1778C62.6766 70.0687 62.9127 69.6565 62.8036 69.2553L61.8264 65.6593C61.4615 64.3167 60.0722 63.5341 58.745 63.8948L46.9385 67.1032C45.5959 67.4681 44.8133 68.8574 45.174 70.1847L46.1512 73.7806C46.2602 74.1819 46.6724 74.4179 47.0737 74.3088Z" fill="black"/>
<path fill-rule="evenodd" clip-rule="evenodd" d="M12.5443 13.3559C18.4552 11.7496 24.3244 14.3807 25.6413 19.2267C26.3501 21.835 25.6125 24.6705 23.627 26.9999C23.4641 27.1933 23.3994 27.443 23.4665 27.6899L24.5611 31.718L18.9263 30.4981C18.786 30.4699 18.6387 30.4768 18.504 30.53C18.1112 30.6699 17.7029 30.814 17.3016 30.9231C11.3907 32.5294 5.52147 29.8982 4.20456 25.0522C2.90308 20.202 6.63334 14.9622 12.5443 13.3559ZM25.8458 33.457C25.9847 33.4193 26.0998 33.3549 26.2022 33.2442C26.3806 33.0465 26.4566 32.7773 26.3895 32.5304L25.0683 27.6689C27.1944 25.003 27.9478 21.7985 27.1383 18.8199C25.6033 13.1714 18.8902 10.0569 12.1767 11.8813C5.46326 13.7057 1.24971 19.7895 2.78471 25.438C4.3197 31.0866 11.0329 34.201 17.7463 32.3766C18.1167 32.276 18.4984 32.1557 18.8604 32.0242L25.4811 33.4567C25.6059 33.4891 25.7223 33.4906 25.8458 33.457Z" fill="black"/>
<path fill-rule="evenodd" clip-rule="evenodd" d="M8.00064 20.7901L20.2392 17.4642C20.6405 17.3552 20.8765 16.943 20.7674 16.5418C20.6584 16.1405 20.2462 15.9045 19.845 16.0135L7.60641 19.3394C7.20515 19.4484 6.96912 19.8606 7.07817 20.2618C7.18721 20.6631 7.59938 20.8991 8.00064 20.7901Z" fill="black"/>
<path fill-rule="evenodd" clip-rule="evenodd" d="M11.6862 23.7989L21.2548 21.1986C21.6561 21.0896 21.8921 20.6774 21.7831 20.2761C21.674 19.8749 21.2618 19.6389 20.8606 19.7479L11.292 22.3482C10.8907 22.4572 10.6547 22.8694 10.7637 23.2706C10.8573 23.6761 11.285 23.9079 11.6862 23.7989Z" fill="black"/>
<path fill-rule="evenodd" clip-rule="evenodd" d="M10.0348 28.2725L22.2734 24.9467C22.6746 24.8376 22.9107 24.4255 22.8016 24.0242C22.6926 23.6229 22.2804 23.3869 21.8791 23.4959L9.64059 26.8218C9.23933 26.9308 9.0033 27.343 9.11235 27.7443C9.2172 28.1301 9.63356 28.3815 10.0348 28.2725Z" fill="black"/>
</svg>
